<?xml version="1.0" encoding="utf-8"?>
<!-- Generator: Adobe Illustrator 27.8.0, SVG Export Plug-In . SVG Version: 6.00 Build 0)  -->
<svg version="1.1" id="Layer_1" xmlns="http://www.w3.org/2000/svg" xmlns:xlink="http://www.w3.org/1999/xlink" x="0px" y="0px"
	 viewBox="0 0 413.4 427.1" style="enable-background:new 0 0 413.4 427.1;" xml:space="preserve">
<style type="text/css">
	.st0{fill:#FFFFFF;}
	.st1{fill:#F18419;}
	.st2{fill:#FAB613;}
</style>
<path class="st0" d="M226,160.1c3.6-4,6.2-6.4,7.1-7.1c0.7-0.6,3.2-2.7,7.6-5.7c6.5-4.4,7.3-4,11.8-7.1c7.1-4.9,5.9-6.4,11.4-9.5
	c4.3-2.3,8.2-3.2,13.3-4.3c2.8-0.6,6.1-1.3,10.4-1.4c5.7-0.2,10.1-0.3,14.7,1.9c4.4,2.1,4.5,4.3,8.5,5.2c1.7,0.4,3,0.3,9-0.9
	c9.2-1.9,13.8-2.8,13.7-3.3c-0.1-0.6-5.4-1.5-6.6,0.5c-2.4,3.7,9.7,17.3,13.3,15.6c0.9-0.4,1.1-1.8,1.4-3.8c0.6-4.1-0.8-8.1-1.4-8
	c-1.2,0.1,3.5,13.6-2.8,21.3c-3,3.6-5.7,2.8-24.1,6.6c-15,3.1-24.4,6-27.9,7.1c-6.3,2-5.4,2-12.3,4.3c-14.3,4.7-16.5,4.1-32.7,8.5
	c-15.8,4.4-22,7.3-24.6,4.3c-1.7-1.9-0.8-5.2,0-8.5C217,170.3,220,166.9,226,160.1z"/>
<path class="st0" d="M86.8,130.3c3.7-2.7,7,0.5,15.1,0c2.5-0.2,1.8-0.4,13.3-3.3c7.2-1.8,10.8-2.7,13.3-2.8
	c2.7-0.2,6.5,0.4,14.2,1.4c9.8,1.4,11.4,2,12.3,2.4c1.8,0.8,4.5,2.9,9.9,7.1c6.5,5,8.5,7.1,9.5,8c3.6,3.8,2.7,3.8,5.2,6.2
	c4.1,3.8,6.3,3.5,15.6,9c2.8,1.7,4.3,2.5,5.7,3.8c3.9,3.4,5.6,7.3,6.6,9.5c1.2,2.7,3.1,6.9,2.8,12.3c-0.2,3.2-1,5.9-2.4,9.9
	c-0.9,2.8-1.7,4.7-2.4,6.2c-1.7,4.1-2.5,6.7-5.2,15.1c-8.3,26.1-9.7,29.5-9,29.8c0.8,0.4,4.1-4.2,3.3-5.2c-0.9-1.1-6.2,4.2-13.3,3.3
	c-4.2-0.5-7-2.9-7.7-3.6c-5.5-5.1-4.7-13.1-4.6-13.9c0.4-3.5,1.6-3.7,2.8-9.9c0.6-3.1,0.8-5.7,0.9-7.1c0.3-4.9-0.3-5.3,0-10.4
	c0.2-4.5,0.7-4.8,0.5-7.6c-0.1-1.6-0.4-4.3-1.9-7.1c-2.6-5-7.3-7-8.5-7.6c-2.6-1.1-3.7-0.8-9.5-1.4c-7-0.7-12.4-1.8-19.9-3.3
	c-4-0.8-6-1.2-8.5-1.9c-11.6-3.1-11.9-5.6-24.1-9.5c-3.2-1-6.4-1.9-10.4-4.3c-1.4-0.8-4-2.4-6.6-5.2c-2.5-2.6-4.1-4.2-4.3-6.6
	c-0.2-1.9,0.8-3.7,2.8-7.1C84.6,132.9,85.6,131.2,86.8,130.3z"/>
<path class="st0" d="M257.1,387.6c21,23.1,109.7-30.5,131.9-32.7c1-0.1,5.2-0.4,6.2-2.8c0.7-1.8-0.9-3.7-5.8-10.5
	c-5.5-7.7-5.8-8.8-7.6-9.5c-4-1.6-7.9,1.2-13.4,3.8c-5.6,2.7-4.3,1.1-29,7c-10.2,2.5-17.8,4.5-24.6,6.4c-21.7,5.9-18.8,5.8-29.4,8.4
	c-21,5.2-27.7,4.2-31,9.9C251.3,372.9,252.1,382.2,257.1,387.6z"/>
<g>
	<path class="st1" d="M96.2,159C59.6,275.6,44,323.6,41.7,328.2c0,0.1-0.1,0.2-0.1,0.3c-1.1,8,106.9,27.1,124.4,32.1
		c0.1,0,0.2,0,0.3,0.1c9.6,0.9,16.1-82.1,23.6-106.3c0.5-1.5,1.5-4.7,0-7.5c-2.8-5-10.8-2.2-16.1-7.5c-2.6-2.6-3.1-6-4-12.6
		c-0.6-4.5-1.7-12.1,1.1-20.7c3.2-9.5,8.1-10.9,8-18.4c0-1,0-6.4-3.4-10.3c-5.4-6.3-16.1-5.4-19.5-5.2C145,172.8,127,170.8,96.2,159
		z"/>
	<path class="st2" d="M222,195.2c30.8,116.5,42.8,164.7,42.6,169.1c0,0.1,0,0.2,0.1,0.3c2,4.4,52.8-14.6,111.9-38.4
		c-11.8-54.9-19.6-79.9-24.7-92.5c-3.1-7.6-8.1-18.1-11-33.8c-1.2-6.4-2.8-12.7-3.9-19.1c0,0-2.1-11.8-7-19.9
		c-0.1-0.2-0.2-0.4-0.3-0.5c-1-1.5-3.7-5.1-8.5-6.3c-8.6-2.1-22.3,7.4-22.3,7.4C288.7,169,268.1,179.9,222,195.2z"/>
	<path d="M21,341.5c1.8-7,6.3-11.9,11.8-16.3c5.9-4.8,9.6-11.4,12.5-18.5c-2.1-1.5-4.1-2.7-5.9-4.3c-12.2-10.5-16.6-23.8-12.6-39.4
		c6.1-23.7,12.6-47.4,19-71.1c3.6-13.2,15.3-20.1,28.5-16.8c2,0.5,4.1,1.1,6.4,1.7c1.3-4.8,2.7-9.5,3.8-14.2
		c0.2-0.8-0.8-2.2-1.7-2.9c-7.4-6.8-9.6-16.5-5.9-25.6c3.7-8.9,12.4-14.5,22.3-13.9c2.2,0.1,4.7,0.4,6.5,1.5
		c3.5,2.1,6.2,1.1,9.5-0.5c23.2-11.1,51.5-3.1,65.8,18.5c1.6,2.4,3.2,3.5,6.2,3.9c9.5,1.2,17.1,6.4,25.7,17c0.7-0.9,1.4-1.7,2-2.5
		c6.4-8.3,14.7-13.3,25.1-14.8c1.4-0.2,3-1.3,3.8-2.4c16.3-23.9,44-31.2,69.8-18.3c1.1,0.5,2.9,0.5,4,0c10.9-5,22.8-2,29.2,7.5
		c6.4,9.6,4.8,21.4-4.1,29.9c-0.8,0.8-1.4,2.4-1.2,3.4c1,4.4,2.3,8.7,3.5,13.3c2.7-0.6,5.3-1.3,8-1.9c11.9-2.6,23.2,3.8,26.6,15.6
		c5.2,18.1,9.8,36.3,14.7,54.5c1.5,5.8,3.1,11.6,4.6,17.3c4.6,17.7-1.4,33.1-16.7,43.1c-0.5,0.3-1,0.7-1.6,1.2
		c2.9,7.1,6.5,13.6,12.5,18.5c5.5,4.4,10,9.4,11.8,16.3c0,3,0,6,0,9c-0.2,0.3-0.6,0.5-0.7,0.8c-2.6,9-8.5,14.3-17.5,16.6
		c-7.6,1.9-15.1,4.1-22.7,6.1c-4.9,1.3-9-0.7-10.1-5c-1.2-4.4,1.1-8.1,6-9.5c5.5-1.6,11.1-3,16.6-4.5c2.8-0.7,5.6-1.4,8.3-2.3
		c3.9-1.4,5.8-5.2,4.7-9c-1.3-4.3-4.8-6.3-9-5.2c-38.9,10.5-77.9,20.9-116.7,31.5c-1.4,0.4-2.9,1.8-3.6,3.1
		c-1.5,2.8-1.4,5.8,0.7,8.4c1,1.1,2.1,1.9,3.2,2.3c2.3,0.8,4.4,0.2,5.3-0.1c3.8-1.1,12.7-3.4,24.5-6.6c22.2-5.9,44.3-11.7,66.5-17.6
		c-2.6,0.7-3.3,1.7-3.5,2.3c-1.3,4,10.1,10.7,10.6,11c-2.6,0.7-53.6,14.4-69.4,18.9c-1.6,0.5-3.2,0.9-3.2,0.9
		c-7.8,2.2-15.7,4.5-23.5,6.7c-3.2,0-6.5,0-9.8,0c-0.5-0.3-1-0.6-1.5-0.8c-13.1-4.5-19.5-17-14.5-29.9c4.5-11.6,4.4-23.2,1.4-34.9
		c-10.6-40.2-21.4-80.4-32.2-120.5c-0.5-1.8-1-3.6-1.8-6.4c-0.5,1.6-0.7,2-0.8,2.4c-10.2,38.1-20.3,76.3-30.8,114.3
		c-4.4,16-6.7,31.6-0.4,48c3.5,8.9-0.5,17.2-8.1,23.1c-2.6,2-5.8,3.1-8.8,4.7c-3.2,0-6.5,0-9.8,0c-0.5-0.3-1-0.7-1.5-0.8
		c-38-10.2-76.1-20.4-114.1-30.8c-4-1.1-8.2-3.3-11.2-6.2c-3-2.9-4.5-7.2-6.7-10.9C21,347.5,21,344.5,21,341.5z M225.4,193.8
		c1.5,5.8,3,11.2,4.4,16.6c10.5,39.1,21.1,78.2,31.3,117.3c2.2,8.4,2.9,17.1,4.3,26c35.5-9.5,71.4-19.1,106.8-28.6
		c-2.9-7.2-6.4-13.9-8.4-21c-10-36-19.6-72.1-29.3-108.2c-2.6-9.7-5.2-19.4-7.9-29.3C292.7,175.8,259.2,184.7,225.4,193.8z
		 M99.5,166.7c-0.2,0.8-0.4,1.4-0.6,2c-8.2,30.7-16.2,61.4-24.8,91.9c-6.1,21.6-9.3,44.2-20.9,64.3c36.1,9.7,72.1,19.3,107.7,28.8
		c3.3-35.8,17-68.6,24-102.8c-17.4-0.8-27.8-15.1-22-32.5c1.9-5.9,3.4-12,5-18c1.3-4.7,2.4-9.5,3.7-14.4
		C147.2,179.5,123.4,173.1,99.5,166.7z M203.3,183.2c0-15-9.8-24.8-22.7-24.7c-4.5,0-7.5-1.6-9.6-5.7c-10.9-21.5-36-27.6-55.9-13.8
		c-4.7,3.3-7.2,2.8-11.7-0.7c-1.8-1.5-4.7-2.5-7-2.4c-3.5,0.1-5.7,3.1-5.9,6.6c-0.2,4.1,1.8,6.6,6.4,7.9c27.9,7.5,55.8,15,83.6,22.5
		c7.1,1.9,8.8,4.9,6.9,12.1c-3.6,13.6-7.2,27.2-10.8,40.8c-0.3,1.3-0.5,2.7-0.2,4c0.8,3.5,3.5,5.5,7,5.6c3.7,0,6.4-2,7.5-6.1
		c2.6-9.6,5.1-19.2,7.7-28.9C200.5,193.9,202.2,187.4,203.3,183.2z M223.1,178.6c1.1-0.2,2.2-0.4,3.2-0.7
		c24.5-6.6,49-13.2,73.5-19.8c10-2.7,20-5.3,29.9-8c3.1-0.8,5.3-2.8,5.6-6.2c0.4-3.3-0.8-5.9-3.8-7.5s-5.8-1.1-8.4,1
		c-6.2,5.1-7.1,5.1-13.6,0.7c-18.1-12.3-42.9-6.8-53.4,12.4c-3.1,5.7-6.6,8.1-13.1,8.1C232.7,158.5,223.7,167.9,223.1,178.6z
		 M166.7,376.7c0-4.1-1.6-6.1-5.5-7.2c-38.6-10.3-77.2-20.7-115.8-31c-4.1-1.1-7.5,0.7-8.9,4.8c-1.5,4.3,0.6,8.2,5.7,9.6
		c12.2,3.4,24.5,6.6,36.8,9.9c26.1,7,52.2,14,78.3,20.9C162.4,385.2,166.7,381.8,166.7,376.7z M50.2,291.3
		c8.9-33.2,17.8-66.3,26.7-99.6c-2.7-0.7-4.8-1.4-7-1.8c-4.9-1-7.8,0.9-9.3,5.7c-0.6,2-1.2,4.1-1.7,6.1c-6,22.5-12.1,45-17.9,67.5
		C38.9,277.5,42.9,286.7,50.2,291.3z M349.1,191.8c8.9,33.3,17.8,66.4,26.7,99.5c7.1-4.2,11.3-13.7,9.3-21.9
		c-2.6-10.9-5.6-21.7-8.5-32.5c-3.7-13.7-7.3-27.4-11.1-41.1c-1.4-5-4.5-6.8-9.6-5.8C353.7,190.4,351.5,191.1,349.1,191.8z"/>
	<path d="M216,15.3c3.6,2.6,4.6,6.1,4.6,10.6c-0.2,20.4-0.1,40.7-0.1,61.1c0,4-2.3,7-5.8,7.7c-3.6,0.8-7.2-1-8.6-4.4
		c-0.4-1-0.6-2.2-0.6-3.3c0-21.2,0-42.5-0.1-63.7c0-3.8,2.3-5.8,4.6-8C212,15.3,214,15.3,216,15.3z"/>
	<path d="M169.4,94.6c0,6.7-5.7,10.6-10.6,8.3c-1.1-0.5-2.2-1.3-3-2.2c-13.8-13.8-27.6-27.5-41.3-41.4c-1.2-1.3-2.7-3.3-2.5-4.8
		c0.4-2.5,1.4-5.5,3.2-6.9c1.7-1.3,4.8-1,7.3-0.8c1.3,0.1,2.5,1.6,3.5,2.6c13.3,13.2,26.6,26.5,39.7,39.8
		C167.5,91.1,168.6,93.5,169.4,94.6z"/>
	<path d="M314.3,54.8c-0.7,1.1-1.5,3.3-3,4.8C297.7,73.5,283.9,87.2,270,101c-3.7,3.6-8.1,3.6-11.3,0.3c-3.1-3.2-3-7.4,0.5-11
		c13.8-13.9,27.7-27.8,41.6-41.6c2.4-2.4,5.2-3.4,8.5-1.9C312.5,48,314,50.4,314.3,54.8z"/>
	<path d="M336,375.4c-0.1,4.3-3.4,7.5-7.7,7.4c-4.3-0.1-7.4-3.5-7.3-7.8c0.1-4.1,3.4-7.2,7.5-7.2C332.8,367.8,336,371.1,336,375.4z"
		/>
	<path d="M342.5,317.5c-4.6,0-7-2-8.2-6.6c-5-18.2-9.9-36.5-14.8-54.8c-5.2-19.2-10.3-38.4-15.4-57.7c-0.5-1.8-1-3.7-0.8-5.5
		c0.4-3.6,3.6-6.3,7.2-6.5c3.4-0.2,6.5,2.1,7.6,6c2.7,9.7,5.3,19.4,7.9,29.2c7.5,28,15,56,22.5,84c1.5,5.6,0.5,9.1-3.3,11
		C344.3,317.2,343,317.4,342.5,317.5z"/>
	<path d="M291.5,325.2c0,3.9-2.9,7.2-6.6,7.9c-3.5,0.6-7.1-1.6-8.3-5.5c-2.2-7.6-4.2-15.4-6.3-23c-8.2-30.6-16.4-61.3-24.6-91.9
		c-1.3-5.1,0.8-9.2,5.2-10.4c4-1.1,8,1.3,9.2,6c10.3,38.2,20.5,76.4,30.8,114.6C291.2,323.8,291.4,324.6,291.5,325.2z"/>
	<path d="M320.3,317.1c-0.1,4.6-2.5,7.5-6.2,8.1c-4.2,0.6-7.5-1.5-8.7-5.9c-2-7.2-3.9-14.4-5.8-21.6c-8.2-30.8-16.5-61.6-24.7-92.3
		c-1.8-6.7,1.9-11.6,8.1-10.8c3.9,0.5,5.6,3.2,6.5,6.8c5.9,22.3,11.9,44.5,17.9,66.7c4.1,15.3,8.2,30.6,12.2,45.8
		C320,315.2,320.2,316.5,320.3,317.1z"/>
	<path d="M84,317.5c-5.3-0.1-8.4-4.7-7-10.3c4.9-18.4,9.8-36.8,14.7-55.2c5.2-19.3,10.4-38.7,15.6-58c1.5-5.7,5-8.4,9.4-7.3
		c4.6,1.1,6.8,4.9,5.6,9.7c-5.3,20.2-10.7,40.4-16.1,60.6c-4.7,17.6-9.4,35.1-14.1,52.6C90.6,315.3,88.2,317.6,84,317.5z"/>
	<path d="M105.6,316.6c1.1-4.1,2.5-9.4,3.9-14.7c9-33.5,18-67.1,27-100.6c0.9-3.4,2.5-6,6.1-6.7c6.1-1.1,10.3,3.9,8.6,10.4
		c-1.8,7.1-3.8,14.2-5.7,21.3c-8.2,30.7-16.5,61.3-24.7,92c-1.3,4.7-3.4,6.8-7.1,7C109.2,325.6,105.7,322.4,105.6,316.6z"/>
	<path d="M165,269c-1.3,4.8-2.9,10.8-4.5,16.8c-3.6,13.4-7.1,26.7-10.7,40.1c-1.6,6-5.9,8.7-10.7,6.7c-3.4-1.4-5.5-4.9-4.5-8.5
		c5.1-19.5,10.3-39,15.6-58.5c1.1-3.9,4.8-6.1,8.3-5.5C162.5,260.7,165,263.8,165,269z"/>
</g>
</svg>
