<?xml version="1.0" standalone="no"?>
<!DOCTYPE svg PUBLIC "-//W3C//DTD SVG 20010904//EN"
 "http://www.w3.org/TR/2001/REC-SVG-20010904/DTD/svg10.dtd">
<svg version="1.0" xmlns="http://www.w3.org/2000/svg"
 width="700.000000pt" height="700.000000pt" viewBox="0 0 700.000000 700.000000"
 preserveAspectRatio="xMidYMid meet">
<metadata>
Created by potrace 1.14, written by Peter Selinger 2001-2017
</metadata>
<g transform="translate(0.000000,700.000000) scale(0.100000,-0.100000)"
fill="#000000" stroke="none">
<path d="M3388 6464 c-2 -1 -82 -5 -178 -9 -246 -10 -283 -12 -385 -20 -125
-9 -256 -23 -300 -31 -11 -2 -40 -7 -65 -10 -25 -3 -52 -7 -60 -9 -8 -2 -31
-7 -50 -10 -150 -24 -371 -95 -425 -137 -52 -40 -88 -75 -100 -98 -18 -35 -21
-95 -6 -146 11 -43 17 -106 25 -274 24 -485 25 -541 12 -640 -26 -195 -1 -407
73 -636 66 -205 87 -323 96 -554 3 -74 8 -151 10 -170 2 -19 6 -71 10 -115 3
-44 8 -98 9 -120 4 -35 8 -84 21 -250 2 -22 6 -75 10 -117 6 -62 4 -78 -6 -79
-8 -1 -477 -2 -1044 -3 l-1030 -1 -3 -1518 -2 -1517 3500 0 3500 0 -2 1518 -3
1517 -1053 0 -1053 0 6 81 c3 45 7 101 10 125 2 24 6 80 10 124 4 44 8 98 10
120 12 134 16 180 20 265 8 150 16 262 21 300 24 165 65 348 103 455 59 166
66 208 62 410 -5 361 -5 511 3 710 10 281 14 333 29 390 7 28 12 56 11 63 -1
6 -2 21 -3 31 -3 46 -94 119 -216 173 -107 47 -274 91 -470 121 -81 13 -216
25 -475 42 -128 8 -618 23 -622 19z"/>
</g>
</svg>
