<?xml version="1.0" encoding="utf-8"?>
<!-- Generator: Adobe Illustrator 27.8.0, SVG Export Plug-In . SVG Version: 6.00 Build 0)  -->
<svg version="1.1" id="Layer_1" xmlns="http://www.w3.org/2000/svg" xmlns:xlink="http://www.w3.org/1999/xlink" x="0px" y="0px"
	 viewBox="0 0 128 128" style="enable-background:new 0 0 128 128;" xml:space="preserve">
<style type="text/css">
	.st0{fill:#FFFFFF;}
	.st1{fill:#F1851C;}
	.st2{fill:#FAB719;}
	.st3{fill:#020203;}
</style>
<path class="st0" d="M67.6,48.3c1-1.2,1.8-1.8,2.1-2.1c0.2-0.2,0.9-0.8,2.2-1.6c1.9-1.3,2.1-1.2,3.4-2.1c2.1-1.4,1.7-1.9,3.3-2.7
	c1.2-0.7,2.4-0.9,3.8-1.2c0.8-0.2,1.8-0.4,3-0.4c1.7-0.1,2.9-0.1,4.3,0.5c1.3,0.6,1.3,1.3,2.5,1.5c0.5,0.1,0.9,0.1,2.6-0.3
	c2.7-0.5,4-0.8,4-1c0-0.2-1.6-0.4-1.9,0.1c-0.7,1.1,2.8,5,3.8,4.5c0.3-0.1,0.3-0.5,0.4-1.1c0.2-1.2-0.2-2.4-0.4-2.3
	c-0.3,0,1,3.9-0.8,6.2c-0.9,1-1.7,0.8-7,1.9c-4.4,0.9-7.1,1.7-8.1,2.1c-1.8,0.6-1.6,0.6-3.6,1.2c-4.2,1.4-4.8,1.2-9.5,2.5
	c-4.6,1.3-6.4,2.1-7.1,1.2c-0.5-0.6-0.2-1.5,0-2.5C65,51.2,65.9,50.2,67.6,48.3z"/>
<path class="st0" d="M27.2,39.6c1.1-0.8,2,0.1,4.4,0c0.7,0,0.5-0.1,3.8-1c2.1-0.5,3.1-0.8,3.8-0.8c0.8,0,1.9,0.1,4.1,0.4
	c2.9,0.4,3.3,0.6,3.6,0.7c0.5,0.2,1.3,0.8,2.9,2.1c1.9,1.5,2.5,2,2.7,2.3c1.1,1.1,0.8,1.1,1.5,1.8c1.2,1.1,1.8,1,4.5,2.6
	c0.8,0.5,1.2,0.7,1.6,1.1c1.1,1,1.6,2.1,1.9,2.7c0.4,0.8,0.9,2,0.8,3.6c0,0.9-0.3,1.7-0.7,2.9c-0.3,0.8-0.5,1.4-0.7,1.8
	c-0.5,1.2-0.7,2-1.5,4.4c-2.4,7.6-2.8,8.6-2.6,8.7c0.2,0.1,1.2-1.2,1-1.5c-0.3-0.3-1.8,1.2-3.8,1c-1.2-0.1-2-0.8-2.2-1
	c-1.6-1.5-1.4-3.8-1.3-4c0.1-1,0.5-1.1,0.8-2.9c0.2-0.9,0.2-1.6,0.3-2.1c0.1-1.4-0.1-1.5,0-3c0.1-1.3,0.2-1.4,0.1-2.2
	c0-0.5-0.1-1.2-0.5-2.1c-0.8-1.4-2.1-2-2.5-2.2c-0.8-0.3-1.1-0.2-2.7-0.4c-2-0.2-3.6-0.5-5.8-1c-1.2-0.2-1.7-0.4-2.5-0.5
	c-3.4-0.9-3.5-1.6-7-2.7c-0.9-0.3-1.8-0.5-3-1.2c-0.4-0.2-1.2-0.7-1.9-1.5c-0.7-0.8-1.2-1.2-1.2-1.9c0-0.6,0.2-1.1,0.8-2.1
	C26.6,40.4,26.9,39.8,27.2,39.6z"/>
<path class="st0" d="M76.6,114.3c6.1,6.7,31.9-8.8,38.3-9.5c0.3,0,1.5-0.1,1.8-0.8c0.2-0.5-0.3-1.1-1.7-3.1
	c-1.6-2.2-1.7-2.5-2.2-2.8c-1.2-0.5-2.3,0.3-3.9,1.1c-1.6,0.8-1.3,0.3-8.4,2c-3,0.7-5.2,1.3-7.1,1.9c-6.3,1.7-5.4,1.7-8.5,2.5
	c-6.1,1.5-8,1.2-9,2.9C75,110,75.2,112.7,76.6,114.3z"/>
<path class="st0" d="M12.2,102c1.5,9,31.5,10,37.3,12.9c0.3,0.1,1.3,0.7,2,0.3c0.5-0.3,0.4-1,0.3-3.5c-0.1-2.7,0-3-0.4-3.5
	c-0.7-1-2.1-1-3.9-1.2c-1.8-0.2-1.2-0.4-8.2-2.9c-2.9-1-5-1.7-7-2.3c-6.2-2-5.5-1.5-8.5-2.6c-5.9-2.1-7.4-3.3-9.1-2.5
	C13.1,97.5,11.9,99.9,12.2,102z"/>
<g>
	<path class="st1" d="M29.9,47.9C19.3,81.8,14.8,95.7,14.1,97c0,0,0,0.1,0,0.1c-0.3,2.3,31,7.9,36.1,9.3c0,0,0.1,0,0.1,0
		c2.8,0.3,4.7-23.8,6.9-30.9c0.1-0.4,0.4-1.4,0-2.2c-0.8-1.5-3.1-0.6-4.7-2.2c-0.8-0.8-0.9-1.7-1.2-3.7c-0.2-1.3-0.5-3.5,0.3-6
		c0.9-2.8,2.4-3.2,2.3-5.3c0-0.3,0-1.9-1-3c-1.6-1.8-4.7-1.6-5.7-1.5C44.1,51.9,38.9,51.4,29.9,47.9z"/>
	<path class="st2" d="M66.5,58.4c8.9,33.8,12.4,47.8,12.4,49.1c0,0,0,0.1,0,0.1c0.6,1.3,15.3-4.2,32.5-11.1
		c-3.4-15.9-5.7-23.2-7.2-26.9c-0.9-2.2-2.4-5.3-3.2-9.8c-0.3-1.9-0.8-3.7-1.1-5.5c0,0-0.6-3.4-2-5.8c0-0.1-0.1-0.1-0.1-0.1
		c-0.3-0.4-1.1-1.5-2.5-1.8c-2.5-0.6-6.5,2.1-6.5,2.1C85.8,50.8,79.8,54,66.5,58.4z"/>
	<path class="st3" d="M8.1,100.9c0.5-2,1.8-3.5,3.4-4.7c1.7-1.4,2.8-3.3,3.6-5.4c-0.6-0.4-1.2-0.8-1.7-1.2c-3.5-3-4.8-6.9-3.7-11.4
		c1.8-6.9,3.7-13.8,5.5-20.6c1-3.8,4.4-5.8,8.3-4.9c0.6,0.1,1.2,0.3,1.9,0.5c0.4-1.4,0.8-2.8,1.1-4.1c0.1-0.2-0.2-0.6-0.5-0.8
		c-2.1-2-2.8-4.8-1.7-7.4c1.1-2.6,3.6-4.2,6.5-4c0.6,0,1.4,0.1,1.9,0.4c1,0.6,1.8,0.3,2.8-0.1c6.7-3.2,14.9-0.9,19.1,5.4
		c0.5,0.7,0.9,1,1.8,1.1c2.8,0.3,5,1.9,7.5,4.9c0.2-0.3,0.4-0.5,0.6-0.7c1.9-2.4,4.3-3.9,7.3-4.3c0.4-0.1,0.9-0.4,1.1-0.7
		c4.7-6.9,12.8-9.1,20.3-5.3c0.3,0.1,0.8,0.1,1.2,0c3.2-1.5,6.6-0.6,8.5,2.2c1.9,2.8,1.4,6.2-1.2,8.7c-0.2,0.2-0.4,0.7-0.3,1
		c0.3,1.3,0.7,2.5,1,3.9c0.8-0.2,1.5-0.4,2.3-0.6c3.5-0.8,6.7,1.1,7.7,4.5c1.5,5.3,2.8,10.5,4.3,15.8c0.4,1.7,0.9,3.4,1.3,5
		c1.3,5.1-0.4,9.6-4.8,12.5c-0.1,0.1-0.3,0.2-0.5,0.3c0.8,2.1,1.9,3.9,3.6,5.4c1.6,1.3,2.9,2.7,3.4,4.7c0,0.9,0,1.7,0,2.6
		c-0.1,0.1-0.2,0.1-0.2,0.2c-0.8,2.6-2.5,4.2-5.1,4.8c-2.2,0.6-4.4,1.2-6.6,1.8c-1.4,0.4-2.6-0.2-2.9-1.5c-0.3-1.3,0.3-2.4,1.7-2.8
		c1.6-0.5,3.2-0.9,4.8-1.3c0.8-0.2,1.6-0.4,2.4-0.7c1.1-0.4,1.7-1.5,1.4-2.6c-0.4-1.2-1.4-1.8-2.6-1.5c-11.3,3-22.6,6.1-33.9,9.1
		c-0.4,0.1-0.8,0.5-1,0.9c-0.4,0.8-0.4,1.7,0.2,2.4c0.3,0.3,0.6,0.5,0.9,0.7c0.7,0.2,1.3,0.1,1.5,0c1.1-0.3,3.7-1,7.1-1.9
		c6.4-1.7,12.9-3.4,19.3-5.1c-0.7,0.2-0.9,0.5-1,0.7c-0.4,1.2,2.9,3.1,3.1,3.2c-0.8,0.2-15.6,4.2-20.1,5.5c-0.5,0.1-0.9,0.3-0.9,0.3
		c-2.3,0.6-4.6,1.3-6.8,1.9c-0.9,0-1.9,0-2.8,0c-0.1-0.1-0.3-0.2-0.4-0.2c-3.8-1.3-5.7-4.9-4.2-8.7c1.3-3.4,1.3-6.7,0.4-10.1
		c-3.1-11.7-6.2-23.3-9.3-35c-0.1-0.5-0.3-1-0.5-1.9c-0.1,0.5-0.2,0.6-0.2,0.7c-3,11.1-5.9,22.1-8.9,33.2c-1.3,4.6-1.9,9.2-0.1,13.9
		c1,2.6-0.1,5-2.4,6.7c-0.8,0.6-1.7,0.9-2.6,1.4c-0.9,0-1.9,0-2.8,0c-0.1-0.1-0.3-0.2-0.4-0.2c-11-3-22.1-5.9-33.1-8.9
		c-1.2-0.3-2.4-1-3.3-1.8c-0.9-0.8-1.3-2.1-1.9-3.2C8.1,102.6,8.1,101.8,8.1,100.9z M67.5,58c0.4,1.7,0.9,3.3,1.3,4.8
		c3,11.3,6.1,22.7,9.1,34c0.6,2.4,0.8,5,1.2,7.5c10.3-2.8,20.7-5.5,31-8.3c-0.8-2.1-1.9-4-2.4-6.1c-2.9-10.5-5.7-20.9-8.5-31.4
		c-0.8-2.8-1.5-5.6-2.3-8.5C87,52.8,77.3,55.4,67.5,58z M30.9,50.2c-0.1,0.2-0.1,0.4-0.2,0.6c-2.4,8.9-4.7,17.8-7.2,26.7
		c-1.8,6.3-2.7,12.8-6.1,18.7c10.5,2.8,20.9,5.6,31.3,8.4c1-10.4,4.9-19.9,7-29.8c-5.1-0.2-8.1-4.4-6.4-9.4c0.6-1.7,1-3.5,1.5-5.2
		c0.4-1.4,0.7-2.8,1.1-4.2C44.8,53.9,37.8,52,30.9,50.2z M61,55c0-4.4-2.8-7.2-6.6-7.2c-1.3,0-2.2-0.5-2.8-1.7
		c-3.2-6.2-10.5-8-16.2-4c-1.4,1-2.1,0.8-3.4-0.2c-0.5-0.4-1.4-0.7-2-0.7c-1,0-1.7,0.9-1.7,1.9c-0.1,1.2,0.5,1.9,1.9,2.3
		c8.1,2.2,16.2,4.4,24.3,6.5c2.1,0.6,2.6,1.4,2,3.5c-1,3.9-2.1,7.9-3.1,11.8c-0.1,0.4-0.1,0.8-0.1,1.2c0.2,1,1,1.6,2,1.6
		c1.1,0,1.9-0.6,2.2-1.8c0.8-2.8,1.5-5.6,2.2-8.4C60.2,58.1,60.7,56.2,61,55z M66.8,53.6c0.3-0.1,0.6-0.1,0.9-0.2
		c7.1-1.9,14.2-3.8,21.3-5.7c2.9-0.8,5.8-1.5,8.7-2.3c0.9-0.2,1.5-0.8,1.6-1.8c0.1-1-0.2-1.7-1.1-2.2s-1.7-0.3-2.4,0.3
		c-1.8,1.5-2.1,1.5-3.9,0.2c-5.3-3.6-12.5-2-15.5,3.6c-0.9,1.7-1.9,2.4-3.8,2.4C69.6,47.8,67,50.5,66.8,53.6z M50.4,111.1
		c0-1.2-0.5-1.8-1.6-2.1c-11.2-3-22.4-6-33.6-9c-1.2-0.3-2.2,0.2-2.6,1.4c-0.4,1.2,0.2,2.4,1.7,2.8c3.5,1,7.1,1.9,10.7,2.9
		c7.6,2,15.2,4.1,22.7,6.1C49.2,113.6,50.4,112.6,50.4,111.1z M16.6,86.3c2.6-9.6,5.2-19.2,7.8-28.9c-0.8-0.2-1.4-0.4-2-0.5
		c-1.4-0.3-2.3,0.3-2.7,1.7c-0.2,0.6-0.3,1.2-0.5,1.8c-1.7,6.5-3.5,13.1-5.2,19.6C13.3,82.3,14.5,85,16.6,86.3z M103.4,57.5
		c2.6,9.7,5.2,19.3,7.8,28.9c2.1-1.2,3.3-4,2.7-6.4c-0.8-3.2-1.6-6.3-2.5-9.4c-1.1-4-2.1-8-3.2-11.9c-0.4-1.5-1.3-2-2.8-1.7
		C104.7,57,104.1,57.2,103.4,57.5z"/>
	<path class="st3" d="M64.7,6.2c1,0.8,1.3,1.8,1.3,3.1C66,15.2,66,21.1,66,27c0,1.2-0.7,2-1.7,2.2c-1,0.2-2.1-0.3-2.5-1.3
		c-0.1-0.3-0.2-0.6-0.2-1c0-6.2,0-12.3,0-18.5c0-1.1,0.7-1.7,1.3-2.3C63.6,6.2,64.1,6.2,64.7,6.2z"/>
	<path class="st3" d="M51.2,29.2c0,1.9-1.7,3.1-3.1,2.4c-0.3-0.1-0.6-0.4-0.9-0.6c-4-4-8-8-12-12c-0.3-0.4-0.8-1-0.7-1.4
		c0.1-0.7,0.4-1.6,0.9-2c0.5-0.4,1.4-0.3,2.1-0.2c0.4,0,0.7,0.5,1,0.8c3.9,3.8,7.7,7.7,11.5,11.6C50.6,28.2,51,28.9,51.2,29.2z"/>
	<path class="st3" d="M93.3,17.7c-0.2,0.3-0.4,1-0.9,1.4c-3.9,4-8,8-12,12c-1.1,1-2.4,1-3.3,0.1c-0.9-0.9-0.9-2.1,0.1-3.2
		c4-4,8-8.1,12.1-12.1c0.7-0.7,1.5-1,2.5-0.6C92.7,15.7,93.2,16.4,93.3,17.7z"/>
	<path class="st3" d="M99.6,110.7c0,1.2-1,2.2-2.2,2.1s-2.1-1-2.1-2.3c0-1.2,1-2.1,2.2-2.1C98.6,108.5,99.6,109.5,99.6,110.7z"/>
	<path class="st3" d="M101.4,93.9c-1.3,0-2-0.6-2.4-1.9c-1.5-5.3-2.9-10.6-4.3-15.9c-1.5-5.6-3-11.1-4.5-16.7
		c-0.1-0.5-0.3-1.1-0.2-1.6c0.1-1,1-1.8,2.1-1.9c1-0.1,1.9,0.6,2.2,1.7c0.8,2.8,1.5,5.6,2.3,8.5c2.2,8.1,4.4,16.3,6.5,24.4
		c0.4,1.6,0.1,2.6-1,3.2C102,93.9,101.6,93.9,101.4,93.9z"/>
	<path class="st3" d="M86.6,96.2c0,1.1-0.8,2.1-1.9,2.3c-1,0.2-2.1-0.5-2.4-1.6c-0.6-2.2-1.2-4.5-1.8-6.7
		c-2.4-8.9-4.8-17.8-7.1-26.7c-0.4-1.5,0.2-2.7,1.5-3c1.2-0.3,2.3,0.4,2.7,1.7c3,11.1,6,22.2,8.9,33.3C86.6,95.8,86.6,96,86.6,96.2z
		"/>
	<path class="st3" d="M95,93.8c0,1.3-0.7,2.2-1.8,2.4c-1.2,0.2-2.2-0.4-2.5-1.7c-0.6-2.1-1.1-4.2-1.7-6.3
		c-2.4-8.9-4.8-17.9-7.2-26.8c-0.5-1.9,0.6-3.4,2.4-3.1c1.1,0.1,1.6,0.9,1.9,2c1.7,6.5,3.5,12.9,5.2,19.4c1.2,4.4,2.4,8.9,3.5,13.3
		C94.9,93.3,95,93.6,95,93.8z"/>
	<path class="st3" d="M26.4,93.9c-1.5,0-2.4-1.4-2-3c1.4-5.3,2.8-10.7,4.3-16c1.5-5.6,3-11.2,4.5-16.8c0.4-1.7,1.5-2.4,2.7-2.1
		c1.3,0.3,2,1.4,1.6,2.8c-1.5,5.9-3.1,11.7-4.7,17.6c-1.4,5.1-2.7,10.2-4.1,15.3C28.3,93.3,27.6,94,26.4,93.9z"/>
	<path class="st3" d="M32.7,93.7c0.3-1.2,0.7-2.7,1.1-4.3c2.6-9.7,5.2-19.5,7.8-29.2c0.3-1,0.7-1.7,1.8-1.9c1.8-0.3,3,1.1,2.5,3
		c-0.5,2.1-1.1,4.1-1.7,6.2c-2.4,8.9-4.8,17.8-7.2,26.7c-0.4,1.4-1,2-2.1,2C33.7,96.3,32.7,95.4,32.7,93.7z"/>
	<path class="st3" d="M49.9,79.9c-0.4,1.4-0.8,3.1-1.3,4.9c-1,3.9-2.1,7.8-3.1,11.6c-0.5,1.7-1.7,2.5-3.1,1.9
		c-1-0.4-1.6-1.4-1.3-2.5c1.5-5.7,3-11.3,4.5-17c0.3-1.1,1.4-1.8,2.4-1.6C49.2,77.5,49.9,78.4,49.9,79.9z"/>
</g>
</svg>
