<?xml version="1.0" encoding="UTF-8"?><svg id="Layer_1" xmlns="http://www.w3.org/2000/svg" viewBox="0 0 128 128"><defs><style>.cls-1{fill:none;stroke:#1d1d1b;stroke-miterlimit:10;stroke-width:7px;}.cls-2{fill:#fab719;}.cls-2,.cls-3,.cls-4,.cls-5{stroke-width:0px;}.cls-3{fill:#e0e2e2;}.cls-4{fill:#fff;}.cls-5{fill:#010101;}</style></defs><line class="cls-1" x1="-2.34" y1="76.01" x2="129.1" y2="76"/><rect class="cls-3" x="0" y="77.89" width="128.02" height="68.47"/><path class="cls-2" d="m36.88,29.05l55.03.37-7.02,80.33-8.86,3.51-25.12-.74c-1.16-.5-2.85-1.39-4.52-2.94-1.97-1.83-3.05-3.77-3.61-5l-3.14-30.84-2.77-43.95v-.74Z"/><path class="cls-5" d="m63.04,9.77c3.76.15,8.39.21,12.99.55,4.69.34,9.39.83,13.85,2.47,1.24.46,2.44,1.14,3.53,1.91,1.27.9,1.5,2.14.96,3.57-.13.35-.25.73-.27,1.1-.16,4.2-.36,8.4-.43,12.6-.03,2.03.17,4.06.3,6.09.17,2.57-.38,5.02-1.22,7.41-1.47,4.18-2.12,8.48-2.26,12.9-.11,3.22-.49,6.43-.75,9.64-.23,2.97-.45,5.95-.68,8.92-.32,3.97-.66,7.95-.97,11.92-.24,3.08-.46,6.15-.7,9.23-.21,2.76-.3,5.55-.67,8.29-.55,4.06-3,6.63-6.81,7.95-2.93,1.02-5.95,1.56-9.04,1.67-3.82.13-7.64.28-11.45.19-3.91-.1-7.79-.52-11.53-1.81-4.13-1.43-6.59-4.16-7-8.56-.33-3.55-.55-7.12-.84-10.68-.31-3.94-.64-7.88-.96-11.82-.24-3.01-.47-6.02-.71-9.02-.25-3.11-.51-6.22-.75-9.33-.24-3.08-.6-6.15-.65-9.24-.06-3.31-.79-6.46-1.88-9.51-1.46-4.06-1.63-8.15-1.03-12.36.21-1.45-.04-2.96-.1-4.45-.12-2.98-.23-5.97-.39-8.95-.05-.85-.2-1.71-.42-2.53-.34-1.22,0-2.37,1.12-3.3,1.78-1.48,3.94-2.13,6.13-2.65,5.14-1.24,10.38-1.69,15.65-1.9,2.05-.08,4.09-.18,7-.3Zm-25.18,11.98c.1,2.67.29,5.41.27,8.14-.01,1.18.43,1.48,1.45,1.7,7.28,1.61,14.67,2.22,22.08,2.2,6.03-.02,12.06-.38,18.07-.84,3.01-.23,5.99-1,8.97-1.57.28-.05.71-.4.72-.62.15-3.04.24-6.08.34-9.01-17.31,3.48-34.57,3.5-51.91,0Zm11.43,76.91s-.06,0-.09,0c-.16-2.74-.3-5.47-.47-8.21-.24-3.84-.52-7.68-.76-11.52-.24-3.91-.44-7.83-.69-11.74-.31-4.98-.66-9.96-.98-14.95-.28-4.33-.54-8.65-.81-12.98-.02-.27-.04-.56-.14-.8-.32-.79-1.23-1.24-2.04-1.03-.86.22-1.42,1.16-1.35,2.19.2,2.91.4,5.81.59,8.72.17,2.77.31,5.54.48,8.31.25,4.05.52,8.1.77,12.15.24,3.77.47,7.55.7,11.32.25,4.12.51,8.24.76,12.36.14,2.35.26,4.71.43,7.06.07.97.6,1.65,1.57,1.82.79.14,1.46-.27,1.77-.98.22-.51.18-1.14.26-1.71ZM89.41,17.08c-10.27-4.16-43.06-3.79-51.07.03,9.67,3.94,41.28,3.93,51.07-.03Zm-51.25,13.66l7.04,75.23c.23.82.7,2.05,1.73,3.14,1.2,1.25,2.83,1.96,8.92,2.57,4.6.46,7.98.49,8.92.49,3.24.01,5.96-.13,8.8-.49,5.09-.64,6.61-1.48,7.58-2.69.83-1.04,1.12-2.2,1.24-3,2.36-25.05,4.72-50.1,7.07-75.15-11.08,2.33-20.15,2.84-26.35,2.85-8.99.01-15.42-1.01-17.17-1.3-3.17-.53-5.82-1.14-7.78-1.64Z"/><path class="cls-4" d="m37.86,21.75c17.33,3.5,34.6,3.49,51.91,0-.1,2.92-.19,5.97-.34,9.01-.01.23-.44.57-.72.62-2.98.57-5.96,1.34-8.97,1.57-6.01.46-12.05.82-18.07.84-7.42.02-14.81-.59-22.08-2.2-1.02-.23-1.46-.52-1.45-1.7.03-2.73-.17-5.47-.27-8.14Z"/><path class="cls-4" d="m49.29,98.66c-.08.58-.04,1.2-.26,1.71-.3.71-.97,1.12-1.77.98-.97-.17-1.51-.85-1.57-1.82-.17-2.35-.29-4.71-.43-7.06-.25-4.12-.51-8.24-.76-12.36-.23-3.77-.46-7.55-.7-11.32-.25-4.05-.52-8.1-.77-12.15-.17-2.77-.31-5.54-.48-8.31-.18-2.91-.38-5.81-.59-8.72-.07-1.03.49-1.97,1.35-2.19.81-.21,1.73.23,2.04,1.03.1.25.13.53.14.8.27,4.33.53,8.65.81,12.98.32,4.98.67,9.96.98,14.95.25,3.91.45,7.83.69,11.74.24,3.84.52,7.68.76,11.52.17,2.73.32,5.47.47,8.21.03,0,.06,0,.09,0Z"/><path class="cls-4" d="m89.41,17.08c-9.79,3.97-41.4,3.98-51.07.03,8-3.82,40.8-4.19,51.07-.03Z"/></svg>