<?xml version="1.0" encoding="UTF-8"?><svg id="Layer_1" xmlns="http://www.w3.org/2000/svg" viewBox="0 0 683.91 741.86"><defs><style>.cls-1{fill:#fab613;}.cls-1,.cls-2{stroke-width:0px;}.cls-2{fill:#000333;}</style></defs><path class="cls-1" d="m466.94,282.52c1.81-22.96,3.4-43.85,5.12-64.72,2.66-32.35,5.24-64.7,8.21-97.02,1.17-12.71.37-25.43-9.7-33.75-11.14-9.2-23.65-17.23-36.63-23.56-14.42-7.04-30.41-10.79-45.07-17.42-20.05-9.06-39.02-20.63-59.33-28.98-18.23-7.49-37.53-10.31-57.29-3.12-8.06,2.93-17.05,4.89-25.55,4.67-22.4-.58-42.09,5.22-59.78,19.18-4.93,3.89-11.74,5.69-17.94,7.65-24,7.57-47.66,15.82-67.3,32.32-12.86,10.8-19.9,24.11-18.16,41.73,2.9,29.32,5.22,58.71,7.36,88.1,2.11,28.95,3.71,57.93,5.57,87.54,6.67-1.61,11.24-3.5,15.88-3.67,9.41-.33,11.01-4.27,10.27-13.39-3.26-40.28-5.48-80.64-8.13-121.68,9.19,0,16.16,0,23.13,0s13.85,0,17.42,0c6.44,13.23,10.31,24.8,17.14,34.21,7.35,10.12,18.81,14.66,31.97,14.9,29.25.55,46.72-12.97,59.3-47.14h184.73s.51.64.47,1.29c-3.82,71.91-7.01,143.85-11.72,215.7-4.7,71.76-10.83,143.42-16.79,215.09-.3,3.56-4.42,8.83-7.74,9.74-10.95,2.98-22.31,5.78-33.57,6.03-52.42,1.15-104.87,2.37-157.28,1.56-21.54-.33-43.03-5.52-64.48-8.88-9.46-1.48-14.41-6.86-11.91-17.15.38-1.55-.18-3.33-.34-5.42-4.84.66-9.01.66-12.77,1.91-3.57,1.19-8.39,2.89-9.74,5.75-3.94,8.33,2.3,24.45,13.79,33.14,10.61,8.02,22.82,7.73,27.63,7.33,9.17,1.71,22.14,3.83,37.8,5.37,15.42,1.51,27.61,1.89,43.19,2.12,35.91.54,42.64-.38,78.93-.39,5.87,0,52.14.01,78.78-4.2,6.67-1.05,13.98-3.96,28.62-9.76,2.16-.86,5.74-2.31,8.72-5.79,3.01-3.51,4.51-8.09,4.95-13.59,4.48-56.67,9.2-113.33,13.67-170.01,2-25.34,3.58-50.72,5.41-76.88.11-.02.22-.04.33-.05,1.05-22.86,2.1-45.72,3.16-68.58m-11.37-167.39c-1.13,5.88-11.18,11.65-18.47,14.33-8.4,3.09-18.05,2.97-27.19,3.82-12.74,1.19-25.57,1.54-38.27,3.06-16.02,1.91-31.37,3.01-45.03-8.67-2.44-2.08-9.01.24-13.55,1.14-10.62,2.1-21.21,6.5-31.71,6.22-6.98-.19-14.57-5.91-20.43-10.88-5.39-4.57-10.62-9.99-17-5.77-2.93,1.94-3.36,9.71-2.76,14.57,3.12,25.17-4.23,39.76-23.99,45.85-22.54,6.93-41.36-9.63-37.22-32.87.77-4.33,2.2-8.56,3.44-12.8,1.51-5.19,5.16-12.47-2.69-13.6-6.17-.88-13.26,2.95-19.59,5.56-3.81,1.57-6.97,6.98-10.34,6.91-10.91-.23-22.14-.9-32.57-3.82-13.02-3.65-17.25-17.78-6.99-26.88,10.68-9.47,24.47-15.58,37.28-22.47,13.87-7.46,29.79-12.05,41.97-21.53,26.83-20.89,65.8-26.21,91.68,13.15.77,1.17,1.89,2.11,3.68,4.07,6.15-12.57-1.22-21.83-22.52-29.83,18.94-18.04,39.8-15.38,61.31-6.47,10.86,4.5,21.53,9.53,32.56,13.59,13.79,5.08,22.71,14.55,27.14,29.28,21.64-10.31,38.45.54,55.53,10.04,1.6.89,3.59,1.74,4.48,3.17,4.31,6.91,12.4,14.8,11.24,20.82Z"/><path class="cls-2" d="m163.71,624.46c2.54,22.28,5.05,44.38,7.49,65.77-21.49-.79-39.59.06-53.25,1.2-25.75,2.14-34.49,5.15-41,11.97-7.35,7.69-9.58,17.85-9.36,24.02.2,5.38,2.26,7.36,2.85,7.88,1.62,1.42,4.01,2.01,7.34,1.83,8.11-.44,16.24-.72,24.37-.73,42.78-.04,85.55-.07,128.33-.09.97.07,5.05.23,8.7-2.7,3.01-2.41,3.97-5.51,4.25-6.59.43-31.69.85-63.37,1.28-95.06-13.4.05-28.14-.53-43.98-2.12-13.3-1.34-25.67-3.21-37.02-5.37Z"/><path class="cls-2" d="m435.58,691.02l-34.24-.18c0-10.18.1-20.49.27-30.94.18-11,.45-21.85.8-32.55-12.72,1.63-26.42,2.92-41.02,3.65-13.32.67-25.93.8-37.75.55-.73,43.86-.84,75.95-.76,84.52.02,1.97.11,6.47,2.44,11.41,1.9,4.04,4.6,6.88,6.79,8.76,41.18-.02,82.35-.05,123.53-.07,12.19,0,24.38-.18,36.57.06,1.96.04,5.81-.6,8.48-3.5,2.09-2.28,2.5-5.05,2.67-6.32,0,0,1-7.48-5.49-16.22-7.02-9.45-30.57-17.3-62.28-19.18Z"/><path class="cls-2" d="m99.56,516.4c-2.1-2.09-4.56-5.8-8.01-7.74-9.3-5.23-19.4-9.09-28.52-14.59-47.63-28.69-59.35-83.04-28.44-128.94,22.21-32.99,53.91-51.67,91.44-61.69,11.64-3.11,22.68-.96,32.42,6.53,18.42,14.16,16.43,40.72-4.33,51.27-7.12,3.62-15.57,4.5-22.95,7.72-10.69,4.65-22.06,8.82-31.18,15.77-27.7,21.1-14.68,50.73,5.67,63.21,7.69,4.72,16.93,7.1,25.67,9.87,21.82,6.91,41.61,15.94,48.07,40.84,6.08,23.44-5,44.73-27.89,59.38-15.72,10.06-50.23,4.34-62.02-8.54-5.98-6.53-11.65-14.22-7.33-22.66,2.32-4.53,10.08-6.28,17.42-10.44Z"/><path class="cls-2" d="m368.21,296.22c3.77.27,9.92.96,12.85,5.37,1.31,1.97,1.94,4.46,1.72,7.44-1.03,13.72-1.92,28.32-7.25,40.66-13.57,31.46-47.93,49.18-82.43,45.27-37.3-4.23-63.16-26.92-71.14-62.56-.8-3.57-1.38-7.3-1.32-10.95.4-23.41,5.92-23.97,22.61-23.53,17.69.46,35.41.1,53.11.1,34.61-2.1,60.89-2.61,71.84-1.81Zm-129.96,44.16c11.06,9.26,19.98,18.51,30.54,25.14,15.67,9.85,33.44,11.24,51.1,5.83,11.87-3.64,12.66-8.48,3.59-16.82-12.6-11.59-27.76-18.13-44.59-20.3-12.7-1.64-25.55-2.4-40.64,6.15Z"/><path class="cls-2" d="m652.45,129.18c-2.74,27.57-18.62,44.18-44.52,47.12-36.55,4.16-67.39-5.45-86.41-39.73-5.1-9.19-11.2-18.5-13.38-28.51-3.51-16.12,6.14-28.88,22.64-30.35,12.67-1.13,25.76,0,38.4,1.91,9.33,1.4,16.27,7.63,15.62,18.37-.63,10.38-7.84,16.01-17.02,17.6-8.22,1.43-16.89.1-25.31.69-3.03.21-5.93,2.46-8.88,3.78,2.33,2.81,4.41,7.75,7.04,8.07,16.89,2.07,33.69,6,49.89-5.63,4.84-3.48,16.33-1.87,22.5,1.53,12.44,6.86,24.17,12.28,39.43,5.13Z"/><path class="cls-2" d="m265.19,256.51c-.22,15.61-12.8,28.2-28.15,28.16-16.98-.04-31.25-14.29-31.03-30.98.19-14.46,15.02-28.41,30.08-28.31,16.63.12,29.34,13.72,29.1,31.12Z"/><path class="cls-2" d="m362.81,282.83c-14.85-.03-25.8-11.75-25.61-27.44.16-13.93,14.02-28.06,27.66-28.21,15.88-.17,29.68,13.06,29.6,28.39-.07,15.35-13.94,27.3-31.65,27.27Z"/><path class="cls-2" d="m615.25,99.71c6.72-13.57,12.03-25.15,18.12-36.31,4.85-8.88,13.13-8.63,21.2-5.46,8.17,3.21,12.91,10.58,10.4,18.51-4.28,13.54-9.77,27.02-17.12,39.08-2.34,3.84-14.06,6.2-18.19,3.73-6.16-3.69-9.4-12.27-14.42-19.55Z"/><path class="cls-2" d="m598.37,112.08c3.46-16.97.33-31.55-14.75-41.94-1.36-.93-3.45-3.26-3.16-3.75,5.66-9.68,9.95-21.12,18.03-28.15,6.92-6.01,17.17-.83,23.99,5.27,2.14,1.92,3.15,7.64,1.92,10.38-7.98,17.84-16.93,35.22-17.15,55.52-.02,1.96-4.23,3.87-6.5,5.81-.8-1.05-1.59-2.09-2.39-3.14Z"/><path class="cls-1" d="m128.67,441.58c-18.07-3.87-26.05-13.81-26.52-31.42-.35-13.24,5.84-20.51,22.86-25.55,1.23,19.07,2.43,37.81,3.66,56.97Z"/><path class="cls-2" d="m534.01,64.91c-2.83-19.02,17.94-34.43,35.54-32.67,6.41.64,9.63,3.29,6.74,10.17-2.85,6.78-5.2,13.8-8.51,20.34-.97,1.91-4.52,3.57-6.87,3.55-8.79-.05-17.57-.85-26.89-1.39Z"/><path class="cls-2" d="m366.96,183.12c8.55.7,16.35,6.03,19.56,13.06.79,1.73,3.2,6.43.85,9.7-1.88,2.62-6.54,4.67-9.9,4.52-8.7-.38-17.43-1.67-25.97-3.47-3.53-.74-9.14-3.51-9.31-5.7-.34-4.4,3.56-9.03,5.27-10.72,3.58-3.54,10.52-8.13,19.5-7.4Z"/><path class="cls-2" d="m463.64,351.1c18.82-2.5,51.39-9.62,82.64-33.34,2.89-2.2,12.4-9.43,22.69-20.85,27.4-30.42,45.31-65.47,49.16-104.11-21.84-3.36-41.4-5.8-60.69-9.59-8.34-1.64-11.84.17-14.41,8.23-4.71,14.7-12.47,28.4-16.32,43.35-3.36,13.04-16.35,30.28-59.9,47.5-1.06,22.94-2.11,45.88-3.17,68.82Z"/></svg>