<?xml version="1.0" encoding="UTF-8"?><svg id="Layer_1" xmlns="http://www.w3.org/2000/svg" viewBox="0 0 683.91 741.86"><defs><style>.cls-1{fill:#000333;stroke-width:0px;}</style></defs><path class="cls-1" d="m472.21,705.68c-2.86-2.53-14.14-11.93-46.14-15.18-11.76-1.2-29.06-1.84-50.06,1.49.87-15.72,3.2-31.99,2.26-48.05-.88-14.99,2.82-23.55,18.03-26.57,15.02-2.98,21.74-13.31,21.73-29.07,0-9.63,2.08-19.25,2.59-28.91,2.07-38.73,3.6-77.49,5.9-116.21,1.53-25.76,4.01-51.47,6.07-77.2,1.18-.01,2.36-.03,3.54-.04.54,2.2,1.78,4.5,1.49,6.57-1.63,11.55,3.93,14.37,14.18,14.38,29.67.03,55.38-10.26,80.9-30.76-26.66-6.45-33.26-31.15-46.86-48.45-17.44,12.84-33.32,24.54-51.7,38.08,0-9.74-.57-17.18.1-24.5,2.75-29.78,5.65-59.55,8.92-89.27,4.5-40.95,9.59-81.83,13.89-122.8.68-6.45-.19-13.77-2.62-19.72-6-14.74-17.71-24.23-31.94-30.03-24.28-9.89-50.49-15.02-72.07-31.53-3.45-2.63-8.49-3.06-12.77-4.59-10.07-3.61-20.25-6.95-30.15-11-16.66-6.82-33.22-8.74-50.62-2.5-7.88,2.83-16.49,3.53-24.76,5.25-14.31,2.98-29.14,4.47-42.79,9.38-21.99,7.9-43.61,17.21-64.59,27.59-13.86,6.86-27.1,15.65-39.18,25.42-10.38,8.39-12.68,20.94-10.08,34.54,1.96,10.28,3.02,20.8,3.7,31.26,1.94,30.27,3.07,60.61,5.39,90.85.93,12.22,4.11,24.27,6.28,36.53,8.71-1.83,15.06-3.17,20.72-4.36-2.42-40.93-4.79-80.98-7.23-122.42h38.61c.31,4.24.43,8.02.89,11.75,3.17,25.86,19.48,43.13,40.45,41.75,16.5-1.09,32.92-3.47,50.84-5.43-2.06-2.77-4.58-6.15-6.34-8.51,4.27-13.21,8.46-26.19,11.9-36.82h184.03c.25,1.64.68,2.83.58,3.98-5.66,68.46-12.11,136.86-16.88,205.39-5.18,74.36-9.13,148.82-12.79,223.29-.61,12.46-5.55,16.46-16.42,18.37-61.06,10.7-122.51,8.61-183.96,6.47-12.37-.43-24.69-2.18-38.88-3.49,20.05-6.98,37.36-13.52,55-18.92,8.08-2.48,16.81-3.76,25.25-3.79,24.31-.09,48.75,2.46,72.91.69,21.61-1.58,42.98-7.24,64.3-11.85,3.47-.75,8.66-5.32,8.78-8.31.09-2.1.17-4.21.25-6.31-.61-.73-1.12-1.62-1.47-2.71-4.13-12.95-10.46-25.3-16.69-37.3-3.14-6.06-6.39-12.06-9.54-18.11-.91-1.74-1.65-3.51-2.31-5.3-.02.16-.03.33-.06.49-8.75-19.33-17.46-40.65-27.89-61.04-9.71-18.98-13.28-19.35-32.16-10.58-23.41,10.88-46.9,21.57-68.47,31.47-5.24-4.47-9.98-11.68-15.99-13.05-20.4-4.64-40.85-3.82-60.46,5.39-4.06,1.91-9.66,3.14-13.7,1.87-16.83-5.29-18.87-5.41-28.05,10.12-4.59,7.76-8.21,16.58-10.12,25.41-2.14,9.94-1.86,20.43-2.64,30.84-13.33-3.45-16.81-11.83-12.71-23.96,5.55-16.44,11.37-32.79,17.13-49.33-4.06-1.9-9.08-3.86-13.72-6.5-19.06-10.84-24.31-28.41-14.5-48.07,7.92-15.88,21.16-25.62,36.8-32.2,9.51-4,19.47-6.88,29.05-10.74,15.35-6.19,22.98-20.75,18.85-35.17-4.79-16.69-18.76-26.08-35.24-21.31-16.57,4.79-33.11,10.61-48.56,18.3-21.08,10.5-37.81,26.9-51.11,46.78C-12.51,394.98-.18,452.03,48.05,481.84c9.45,5.84,18.04,13.15,27.03,19.78-.5,1.48-1.01,2.95-1.51,4.43-14.5,5.69-28.99,11.39-43.5,17.08-21.23,8.32-22.54,13.22-12.17,33.4,12.45,24.21,23.75,49.04,35.66,73.54,2.81,5.78,6.09,11.33,9.28,17.24,11.88-5.71,23.09-8.97,31.74-15.69,18.4-14.29,37.23-12.93,57.24-5.24,1.7,21.44,3.43,43.33,5.05,63.79h-43.71c-11.06.93-39.31,4.35-57.91,19.65-4,3.29-13.55,11.15-13.41,21.04.02,1.4.02,5.04,2.48,7.15,3.29,2.82,9.17.78,13.32.78,55.02-.02,110.04-.06,165.05-.13,1.98-1.78,3.64-3.92,5.23-6.15.04-.2.09-.4.13-.61.98-4.9.88-10.85,1.07-16.46-.14,0-.28,0-.43,0v-86.14h77.69c0,26.56.19,53.31-.37,80.04-.01.57-.42,1.26-1.06,1.96.12,2.04.23,4.08.36,6.12.28,4.49.28,9.38,1.61,13.7,1.21,3.94,4.46,5.9,8.02,7.39,38.07-.09,76.13-.19,114.2-.34,9.05-.04,24.77-.08,44.56-.03,3.2-.99,9.28-3.41,11.15-8.71,3.38-9.59-9.69-21.12-12.65-23.74Zm-49.89-587.38c-9.38,3.78-19.75,5.59-29.85,6.78-13.83,1.63-27.83,1.8-41.75,2.71-12.96.85-25.28.78-35.51-10.03-2.41-2.55-10.09-2.8-13.62-.85-21.89,12.11-42.2,10.54-62.65-5.21-3.49-2.69-8.82-2.9-15.38-4.88,0,11.32.3,20.35-.06,29.35-.78,19.79-8.48,31.12-23.7,35.61-17.91,5.29-33.08-3.99-35.36-23.54-1.33-11.4.77-23.23,1.45-37.43-6.45,1.56-13.39,1.55-18.32,4.75-15.12,9.84-29.56,4.72-43.61-1.09-8.94-3.69-10.11-11.78-4.43-19.87,8.78-12.51,20.64-19.63,35.57-23.08,18.92-4.37,37.32-10.3,52.3-24.51,20.21-19.16,53.27-13.59,70.31,10.53,2.83,4.01,7.71,6.5,11.64,9.69-1.7-5.53-2.27-11.88-5.39-16.38-3.64-5.24-9.5-8.87-14.81-13.56,19.5-16.67,38.82-15.22,59.04-2.97,6.2,3.76,13.63,6.08,20.79,7.34,14.59,2.58,25.43,9.91,31.39,23.66,2.84,6.55,5.48,8.91,12.95,6.4,14.64-4.92,50.11,10.38,57.72,23.88,4.68,8.29,1.72,18.46-8.72,22.67Zm-120.08,310.68c3.5,2.27,8.47,3.69,10.26,6.95,13.76,24.92,27.07,50.11,40.17,75.4,7.16,13.83,4.59,24.13-9.5,29.83-15.65,6.33-32.32,10.02-48.55,14.86-.38-1.25-.76-2.51-1.14-3.76,17.76-8.22,35.51-16.44,53.27-24.66-15.26-29.98-29.79-58.18-43.83-86.63-1.62-3.28-.52-7.97-.68-12Zm-249.29,105.17c3.01-6.13,49.17-21.76,55.64-19.22,2.05.81,3.67,2.77,6.68,5.14-19.54,8.71-37.04,16.65-54.71,24.19-2.08.89-6.72.35-7.28-.88-1.19-2.65-1.56-6.74-.33-9.24Zm10.3,81.06c-9.43-20.56-19.42-40.86-29.11-61.3-1.93-4.07-3.6-8.26-5.45-12.55,8-6.18,13-7.16,17.56,3.21,10.94,24.89,22.88,49.31,34.85,74.84-11.79,9.15-11.85,8.88-17.85-4.2Zm4.47-59.56c18.24-2.92,33.26-12.56,50.1-7.15-1.75-5.07-3.91-11.32-6.07-17.56,1.1-.91,2.19-1.83,3.29-2.74,7.53,14.79,15.41,29.47,34.32,19.19,12.92-7.02-.75-16.03,3.52-25.56,4.76,8.83,10.02,17.44,13.81,26.68.64,1.57-4.51,7.23-7.91,8.63-16.68,6.87-33.82,12.59-50.52,19.42-7.94,3.25-15.26,8.06-25.27,13.46-5.06-11.4-9.7-21.83-15.27-34.37Zm54.88,48.69c-9.58,3.79-19.44,6.96-29.36,9.7-2.37.66-5.51-1.56-8.29-2.45,1.17-2.9,1.68-6.46,3.68-8.51,2.19-2.24,5.7-3.22,8.73-4.52,28.87-12.4,57.47-25.51,86.71-36.91,37.64-14.67,75.78-28.05,113.79-41.71,4.52-1.62,9.64-1.5,16.19-2.43-9.46-21.03-18.82-41.82-28.92-64.29-19.7,8.92-39.39,17.85-59.09,26.77,2.33,5.21,4.65,10.42,6.98,15.63,14.63-6.21,29.25-12.41,43.88-18.62,4.86,10.38,9.71,20.76,14.57,31.14-31.41,12.52-62.82,25.03-94.24,37.55-6.02-14.01-12.16-28.27-18.94-44.04,5.47,4.22,9.43,8.64,14.33,10.66,4.5,1.85,11.59,3.3,14.67.96,3.75-2.84,6.63-10.02,6.18-14.96-1.59-17.4-9.03-31.31-27.74-35.68,7.95-9.41,18-11.14,25.75-2.97,7.47,7.88,14.15,6.35,22.18,2.57,17.53-8.26,35.17-16.28,54.59-25.24,12.79,25.58,25.55,50.91,38.1,76.34,4.27,8.64,1.05,13.58-8.08,14.93-2.4.35-4.96.3-7.17,1.18-62.85,24.93-125.64,50.03-188.51,74.9Z"/><path class="cls-1" d="m568.78,339.74q-.14-25.47,22.55-34.64c3.43-1.38,6.91-2.74,10.47-3.68,6.67-1.76,14.65-5.4,18.49,3.42,3.71,8.52,2.71,17.84-5.12,24.08-4.42,3.52-9.98,5.93-15.38,7.71-8.97,2.96-18.14,5.42-27.37,7.37-56.94,12-83.88-37.5-75.9-82.65,4.05-22.88,6.92-44.36-2.99-66.54-4.82-10.8,7.7-21.24,20.28-18.21,13.91,3.36,24.02,19.3,25.38,39.46,1.56,23.07,2.68,46.2,5.29,69.15,2.27,19.86,11.79,36.84,24.29,54.54Z"/><path class="cls-1" d="m551.11,257.88c-7.91-23.89-5.61-30.35,14.52-39.42,24.43-11.01,49.07-21.53,73.75-31.91,10.13-4.26,21.2-6.92,30.52.74,5.21,4.28,11.15,11.66,11.05,17.53-.1,5.92-6.08,13.98-11.63,17.06-10.34,5.74-22.13,8.91-33.51,12.49-22.37,7.04-44.85,13.76-67.36,20.33-5.45,1.59-11.21,2.09-17.34,3.18Z"/><path class="cls-1" d="m250.16,241.84c.18,15.36-12.1,27.94-27.43,28.08-14.44.14-26.81-12.35-26.93-27.18-.13-15.21,12.96-29.63,26.64-29.36,14.6.29,27.55,13.59,27.72,28.46Z"/><path class="cls-1" d="m324.13,244.1c-.2-15.98,12.58-30.58,26.77-30.59,12.48,0,25.3,14.92,25.24,29.4-.05,13.32-13.41,25.9-28.1,26.48-12.21.48-23.73-11.71-23.9-25.28Z"/><path class="cls-1" d="m621.44,277.31c-1.71,1.75-4.92,7.39-9.59,9.31-12.91,5.32-26.42,9.12-39.71,13.48-8.68,2.85-12.35-3.04-14.43-9.7-2.04-6.53-5.35-14.3,4.4-18.07,13.85-5.35,27.6-11.06,41.72-15.55,8.88-2.82,17.38,5.63,17.61,20.53Z"/><path class="cls-1" d="m124.31,424.54c-14.99-1.39-23.59-5.46-23.56-19.84.01-5.41-1.52-10.8-1.92-16.24q-1.61-21.94,21.23-30.19c1.41,22.04,2.78,43.33,4.25,66.27Z"/><path class="cls-1" d="m332.88,196.04c-2.64-1.59-6.65-2.63-7.54-4.93-.91-2.38.41-6.6,2.14-8.93,6.92-9.3,27.52-12.57,36.07-5.07,3.25,2.85,3.76,8.95,5.51,13.57-4.13,1.57-8.23,4.3-12.41,4.46-7.65.28-15.35-.97-23.04-1.58-.25.83-.5,1.66-.74,2.48Z"/><path class="cls-1" d="m152.58,424.37c-2.42,1.79-5.23,3.87-10.57,7.82-1.3-13.71-2.37-24.94-3.43-36.18.72.03,1.44.05,2.16.08,3.87,9.23,7.73,18.47,11.84,28.27Z"/><path class="cls-1" d="m343.12,294.51c2.61-.17,8.53-.61,12.44,3.18,2.46,2.38,3.55,6.27,3.75,12.28.95,28.26-24.7,61.98-51.69,67.95-41.95,9.28-76.98-11.91-89.1-54.22-1.38-4.8-1.81-10.12-1.54-15.14.47-9.02,4.83-13.51,14.59-13.18,18.78.63,37.6.18,56.4.18,25.03-.1,43.7-.3,55.14-1.06Zm-95.94,43.78c8.11,16.99,21.24,18.09,33.87,18.78,10.59.58,22.46,2.76,30.56-11.21-20.64-10.48-40.77-11.85-64.44-7.56Z"/></svg>