<?xml version="1.0" encoding="UTF-8"?><svg id="Layer_1" xmlns="http://www.w3.org/2000/svg" viewBox="0 0 683.91 741.86"><defs><style>.cls-1{fill:#000333;stroke-width:0px;}</style></defs><path class="cls-1" d="m527.36,701.97c-14.97-9.91-31.53-10.92-38.65-10.97h-45.49c9.47-19.81.47-41.65,4.54-62.82,5.92-2.51,12.19-4.95,18.27-7.79,8.02-3.75,12.72-9.59,13.01-19.11.34-11.12,2.08-22.18,2.75-33.3,3.5-58.24,6.78-116.49,10.32-174.73.69-11.34,2.09-22.64,3.28-33.95.48-4.57,1.81-9.1,1.85-13.65.09-10.54-1.34-21.17-.43-31.61,3.94-45.23,8.27-90.42,12.98-135.58,1.52-14.55-.89-26.9-13.64-35.56-15.36-10.43-31.18-19.7-50.01-22.75-5.64-.91-12.34-2.36-16.18-6.03-15.41-14.75-34.52-21.83-54.03-28.33-16.06-5.35-31.61-4.78-46.58,4.17-2.92,1.75-7.43,2.73-10.59,1.86-23.15-6.38-42.82,1.24-62.61,12.65-13.99,8.07-29.79,12.94-44.6,19.63-11.33,5.12-23.26,9.6-33.35,16.63-11.54,8.04-15.8,20.64-13.66,34.98.99,6.65,1.98,13.34,2.27,20.04,1.46,34.58,2.53,69.18,4.1,103.76.51,11.3,2.14,22.56,3.33,34.62,3.78-.74,6.31-1.66,8.83-1.66,9.96-.03,11.83-5.33,10.84-14.19-1.66-14.86-3.01-29.8-3.37-44.73-.55-22.5-.14-45.03-.14-67.1h35.69c4.47,27.22,18.24,41.49,40.94,43.69,25.07,2.43,39.54-9.71,52.08-43.16h163.47c-1.5,22.93-3.02,45.13-4.4,67.34-4,64.4-8.07,128.8-11.88,193.22-2.47,41.87-4.65,83.75-6.66,125.64-.29,6.12-2.72,9.08-8.46,10.08-13.24,2.32-26.41,6.3-39.72,6.84-35.74,1.45-71.54,1.72-107.33,1.93-28.46.16-56.79-1.26-84.36-9.65-5.45-1.66-7.47-4.08-7.6-9.71-.19-8.69-1.33-17.35-2.09-26.39-4.33,0-7.6.4-10.73-.08-8.33-1.27-10.27,3-9.5,10.12.72,6.69,1.81,13.4,1.85,20.11.07,12.68,6.39,20.27,17.99,24.05,9.1,2.97,18.23,5.82,27.23,8.69,3.18,20.94-2.33,42.4,7.62,61.15-23.23.14-46.46.28-69.69.42-4.49.81-11.79,2.82-18.52,8.42-12.02,10.01-18.59,28.49-12.95,34.54,1.81,1.94,4.43,2.28,7.81,2.28,11.15-.01,22.29-.44,33.44-.44,38.4,0,76.8.04,115.2.06.5-.31,1-.63,1.49-.97,5.61-3.87,7.92-10.81,8.47-18.93-.36-27.87-.73-55.73-1.09-83.6h71.94v83.6c-.35.97-2.98,8.7,1.51,15.17,1.78,2.56,4.03,4,5.54,4.77,32.06.02,64.13.04,96.19.04,16.43,0,32.86-.33,49.28-.66,5.93-.12,13.22-.26,13.4-8.01.04-1.59-.38-3.22-1.43-5.05-7.56-13.22-17.8-19.99-17.8-19.99Zm-80.97-512.61c-.18-.88-.36-1.76-.54-2.64-12.49,1.15-24.99,2.2-37.46,3.5-9.73,1.01-18.01-1.44-24.07-9.44-3.46-4.57-6.58-5.27-11.68-1.61-17.98,12.88-38.03,12.11-55.91-.48-3.55-2.5-9.2-2.02-13.89-2.91-.53,3.85-1.99,7.84-1.44,11.53,3.22,21.61-4.01,33.86-24.34,40.2-16.31,5.09-31.55-5.83-30.87-22.83.29-7.17,2.46-14.33,4.24-21.37,1.76-6.97-.09-9.49-7.19-7.97-3.33.71-7.72,1.87-9.3,4.33-4.9,7.63-12.24,7.56-19.44,7.19-6.68-.34-13.41-1.64-19.91-3.29-10.95-2.79-14.37-12.33-7.9-21.67,7.97-11.51,20.41-15.9,32.8-20.82,13.76-5.46,28.13-10.63,40.15-18.95,16.31-11.29,33.23-15.51,52.32-12.82,8.08,1.14,14.85.31,22.34-4.36,13.84-8.63,28.8-5.48,43.1.4,9.47,3.9,19.18,7.44,28.06,12.44,5.57,3.14,10.7,8.03,14.42,13.27,5.96,8.43,6.45,9.34,13.75,2.89,6.16-5.45,10.77-4.78,16.67.57,6.64,6.02,14.35,10.86,21.52,16.3,4.89,3.71,10.06,7.18,14.38,11.49,7.55,7.54,6.63,14.66-3.54,18.25-11.66,4.12-24.13,5.96-36.24,8.79Z"/><path class="cls-1" d="m177.86,516.47c-.48-10.17-7.77-12.97-14.57-14.42-12.67-2.71-23.62-8.16-33.77-16.04-30.57-23.71-36.5-59.45-13.95-90.77,22.3-30.97,53.03-49.06,90.37-55.99,12.88-2.39,25.93,5.67,29.83,17.77,3.98,12.34-2,26.68-14.25,32.5-5.49,2.61-11.58,4.07-17.49,5.71-15.06,4.17-28.31,11.17-38.26,23.58-9.25,11.54-7.46,23.45,5.83,29.76,11.57,5.49,23.95,9.32,36.13,13.44,16.13,5.46,29.78,13.96,37.61,29.66,7.56,15.16,6.82,30.34-2.79,44.22-9.28,13.4-22.09,20.15-39.15,18.69-14.39-1.23-26.99-5.36-36.46-16.65-2.22-2.65-4.06-5.8-5.35-9-4.29-10.67-.91-14.78,10.53-13.22,1.66.23,3.32.45,5.74.77Z"/><path class="cls-1" d="m570.59,144.48c33.51,46.4-12.64,197.67-63.87,206.26,6.68-37.74,2.78-76.39,12.91-113.96,4.61-17.08,2.28-36.08,2.71-54.22.43-18.58.43-17.97,17.41-23.72,10.41-3.52,20.07-9.26,30.85-14.37Z"/><path class="cls-1" d="m406.67,326.73c2.56.06,9.15.16,12.76,4.61,1.91,2.36,2.8,5.67,2.42,10.01-.88,9.99-3.05,20.54-7.54,29.39-10.66,21.02-40.57,44.65-75.16,36.56-30.67-7.17-53.21-31.94-55.32-62.66-.4-5.9.61-10.28,3.31-13.15,3.64-3.86,9.26-3.97,11.39-4.03,62.51-1.86,77.73-1.49,108.15-.74Zm-90.1,51.5c10.32,11.32,32.62,16.68,44.01,10.96-5.89-12.44-29.53-18.58-44.01-10.96Z"/><path class="cls-1" d="m573.59,91.76c5.8,8.4,5,22.38-1.4,30.88-12.46,16.56-30.15,23.51-49.79,26.57-1.97.31-4.83-.71-6.25-2.13-6.36-6.38-12.34-13.14-19.05-20.4,14.02-3.57,23.87-11.65,27.8-24.96-2.21-3.22-5.09-5.95-6.17-9.26-3.67-11.26-11.22-17.62-22.71-19.18-5.05-.69-6.1-2.99-5.56-7.68,1.87-16.39,22.19-29.29,34.67-21.8,1.51.91,3.1,1.71,5.09,2.8-16.88,19.74-5.89,38.04-.16,55.93,2.9,9.06,25.42,9.45,33.78,1.2,3.48-3.43,6.23-7.6,9.74-11.97Z"/><path class="cls-1" d="m456.25,5.89c2.53.85,6.07,1.48,9.04,3.13,10.87,6.06,20.34,30.49,17.07,42.52-1.52,5.59-2.12,11.43-3.52,17.06-2.06,8.28-10.21,8.4-16.22,10.56-1.91.69-7.05-3.16-8.36-6.01-5.74-12.46-11.56-25.03-15.57-38.11-4.55-14.84.26-24.68,11.46-27.94,1.66-.48,3.41-.69,6.11-1.21Z"/><path class="cls-1" d="m574.32,83.05c-3.77-9.78-6.55-17.01-9.33-24.24-1.18.27-2.35.54-3.53.81.52,6.66.99,13.33,1.59,19.99.59,6.47-.36,12.26-6.33,16.15-7.31,4.76-15.11,3.09-19.3-4.61-6.1-11.22-8.03-23.07-4.3-35.55,3.73-12.48,14.39-17.84,26.75-13.4,11.45,4.12,21.13,21.04,18.53,32.78-.46,2.08-1.93,3.93-4.07,8.08Z"/><path class="cls-1" d="m295.99,266.07c14.74.24,26.08,11.27,26,25.27-.07,12.43-11.86,23.11-25.19,22.82-13.29-.29-24.27-11.21-24.17-24.03.1-12.12,11.87-24.25,23.37-24.06Z"/><path class="cls-1" d="m407.32,266.58c13.7.04,25.3,11.41,25.43,24.92.13,13.7-10.74,23.09-26.47,22.88-11.39-.16-21.05-10.61-20.92-22.63.14-13.02,10.76-25.19,21.96-25.16Z"/><path class="cls-1" d="m491.69,83.22c8.93,1.93,16.05,8.74,16.89,17.32.71,7.32-3.64,11.89-12.95,13.43-6.32,1.04-12.64,2.36-19.01,2.72-3.62.21-7.62-.61-10.97-2.07-10.61-4.64-11.94-12.87-2.23-18.83,8.71-5.35,18.79-8.47,28.27-12.57Z"/><path class="cls-1" d="m407.94,226.21c7.22,4.45,13.43,7.44,18.46,11.79,2.07,1.79,3.26,7.77,1.88,9.59-2.01,2.66-7.31,5.26-10.14,4.39-7.51-2.3-14.44-4.03-22.14-.84-1.43.59-5.38-1.57-6.08-3.31-1.06-2.63-1.58-7.42-.07-8.78,5.12-4.62,11.23-8.13,18.08-12.84Z"/><path class="cls-1" d="m199.06,448.6c-4.01-1.61-6.16-2.34-8.19-3.3-18.38-8.67-19.41-15.23-4.51-28.44,2.8-2.48,5.6-4.94,10.84-9.57.67,14.74,1.23,27.18,1.87,41.32Z"/></svg>