<?xml version="1.0" encoding="UTF-8"?><svg id="Layer_1" xmlns="http://www.w3.org/2000/svg" viewBox="0 0 683.91 741.86"><defs><style>.cls-1,.cls-2,.cls-3,.cls-4{stroke-width:0px;}.cls-2{fill:#fab613;}.cls-3{fill:#f9f9f9;}.cls-4{fill:#000333;}</style></defs><path class="cls-3" d="m236.82,124.93c-21,6.43-32.9,10.65-41.2,22.36-8.21,11.59-8.46,24.27-8.24,42.37.65,52.88,3.53,80.04,3.53,80.04,8.87,83.66,7.01,99.03-2.35,104.76-9.94,6.08-19.44-4.16-35.31,2.35-17.14,7.04-24.3,26.47-28.25,37.66-17.27,48.94,1.81,99.01,12.95,127.12,4.19,10.58,35.68,88.4,64.74,84.75,9.43-1.19,11.4-10.05,34.13-18.83,11.02-4.26,21.1-8,31.78-4.71,10.77,3.32,10.66,10.26,22.36,17.66,9.53,6.02,21,6.84,43.55,8.24,5.19.32,18.54,1.04,44.73,0,29.22-1.16,43.97-1.82,50.61-5.89,7.3-4.47,11.18-10.17,27.07-50.61,13.65-34.75,20.48-52.13,22.36-63.56,4.18-25.36-.59-37.56-3.53-67.09-3.22-32.33.6-67.85,8.24-138.89,5.53-51.42,8.3-77.14,9.42-84.75,6.43-43.7,10.39-53.68,3.53-67.09-10.7-20.94-35.87-27.02-84.75-38.84-28.53-6.9-52.55-12.71-85.92-10.59-15.92,1.01-40.43,8.52-89.45,23.54Z"/><path class="cls-4" d="m315.54,387.76c-28.77-6.28-56.93-12.22-85.44-3.29-8,2.51-15.36,7.17-22.82,11.22-3.49,1.89-11.83-.96-15.4-6-5.18-7.32-11.99-11.12-21.17-10.9-7.01.16-10.06,3.87-11.19,10.23-1.38,7.73.19,14.47,5.42,19.77,3.43-5.73,5.77-12.63,10.56-16.47,2.73-2.19,9.48.63,14.41,1.19.28.82.56,1.64.83,2.45-2.65,2.5-5.28,5.03-7.96,7.5-3.4,3.12-7.53,5.69-10.14,9.36-9.5,13.36-18.63,26.98-27.64,40.68-14.33,21.79-.83,55.71,24.59,61.82,5.94,1.43,12.1,1.96,18.06,3.34,3.76.87,7.78,1.88,10.9,3.99,7.28,4.9,7.24,12.4-.53,16.26-5.02,2.49-11.2,2.84-16.92,3.67-4.75.69-9.3,1.17-10.97,7.51,8.67,5.69,18.76,6.12,28.49,7.88,2.74.49,6.35,1.25,7.68,3.18,1.87,2.71,3.56,7.31,2.45,9.87-1.26,2.91-5.55,6.08-8.73,6.31-12.56.91-24.91-.76-36.5-6.59,5.53,15.61,22.35,10.24,33.1,17.02-3.46,6.26-8.78,10.12-15.28,9.76-7.64-.42-15.77-1.52-22.64-4.64-20.32-9.22-35.97-23.34-43.39-45.37-5.31-15.74-13.28-30.79-16.93-46.86-9.55-42.06.14-79.22,32.59-109.15.72-.66,1.4-1.37,2.08-2.08.63-.65,1.24-1.32,2.26-2.42,1.6,9.43,3.34,18.18,4.44,27.02.33,2.67-1.09,5.56-1.76,8.34-2.07,8.51-4.45,16.97-6.1,25.56-.52,2.72.89,5.81,1.41,8.73.69,0,1.39.02,2.08.03.78-2.68,1.27-5.49,2.41-8.02,3.38-7.53,6.5-15.26,10.74-22.29,2.81-4.66,3.63-8.55,1.87-13.71-2.11-6.22-3.86-12.69-4.69-19.18-2.47-19.25,11.99-32.72,31.13-28.25,8.12,1.9,15.7,6.48,23.24,10.38,3.42,1.77,5.69,2.45,9.87.96,30.5-10.86,61.79-12.79,93.23-4.99,5.98,1.48,10.94,7.13,17.5,11.65,5.78-3.28,13.3-8.51,21.57-11.99,8.43-3.55,17.46-6.82,26.46-7.66,17.47-1.63,29.96,12.18,27.87,29.63-.81,6.75-2.57,13.45-4.54,19.98-1.95,6.44-.6,11.22,3.26,16.91,6.38,9.41,11.15,19.93,16.42,30.08.86,1.66,1.69,4.14,1.07,5.64-3.11,7.57,1.29,11.12,6.79,14.67,12.51,8.08,10.7,20.59,8.93,32.47-1.89,12.74-6.72,23.97-19.61,30.01-2.47,1.16-4.06,4.68-5.55,7.39-5.18,9.4-10.57,18.72-15.01,28.47-2.64,5.8-4.52,12.27-5.16,18.59-.72,7.25.44,14.68.55,22.03.15,10.49-2.52,14.39-12.59,17.95-13.14,4.65-26.56,4.21-39.86.94-6.55-1.61-12.05-1.91-18.87,1.06-6.2,2.71-14.41,1.99-21.53,1.12-7.62-.93-10.55-7.56-11.48-14.43-1.09-8.14-4.91-11.38-13.27-10.43-5.28.61-10.94.39-16.09-.87-5.92-1.45-7.51,1.14-9.33,5.89-8.12,21.17-35.7,27.38-51.19,10.5-4.93-5.37-5.39-15.22-6.57-23.22-.17-1.12,7.23-3.36,11.72-5.36.72,3.28.97,4.67,1.33,6.03,1.08,4.13,1.09,10.81,3.53,11.87,6.27,2.74,13.62,3.12,20.58,4.06.88.12,2.43-1.95,3.02-3.28.67-1.51.43-3.4.9-5.03,1.49-5.13,1.67-9.85-1.96-14.45-2.07-2.62-3.17-6-4.22-9.69,24.03,10.75,49.18,8.95,74.1,8.96,6.84,0,13.75-.83,20.51-.15,4.1.41,7.99,3,11.97,4.6-.2.64-.4,1.27-.6,1.91h-5.18c-.45.54-.9,1.07-1.35,1.61,4.84,4.48,9.05,11.48,14.66,12.87,9.18,2.28,19.27,1.22,28.97.96,4.89-.13,7.12-3.24,6.48-8.53-.7-5.83-.45-11.77-1.12-17.6-.22-1.93-2-3.68-3.29-5.89,4.21-16.21,22.29-25.52,24.7-44.72-4.46-.78-9.08-1.13-13.36-2.51-2.39-.77-5.7-3.02-6.01-5.01-.57-3.64.49-7.68,1.6-11.32.17-.56,4.3.06,6.6.2,7.42.45,14.88,1.65,22.24,1.22,7.76-.45,12.46-6.08,13.77-13.31,1.52-8.38,2.81-17.27-4.73-24.01-5.41-4.83-18.92-3.98-27.75,1.64-2.68,1.71-5.05,3.93-7.8,5.5-1.53.88-4.33,1.83-5.16,1.11-1.43-1.22-2.99-4.38-2.35-5.56,2.59-4.75,5.05-10.68,9.31-13.14,7.19-4.16,15.7-6.01,24.51-9.14-5-21.45-16.09-39.67-35.99-51.89-4.6-2.83-10.36-4.79-9.83-11.4.73-8.91,7.59-16.45,15.24-17.4,1.76-.22,4.27.18,5.31,1.32.81.9.29,3.55-.37,5.11-1.13,2.68-4.06,5.16-3.98,7.66.09,3.29,2.36,6.52,3.69,9.77,1.82-1.74,4.59-3.18,5.27-5.29,1.64-5.08,2.55-10.43,3.29-15.74,1.46-10.41-2.52-14.99-13.15-15.39-9.06-.34-17.83,1.27-24.93,7.11-7.71,6.34-14.68,13.56-22.18,20.16-1.79,1.58-4.39,2.24-6.62,3.33-.57-2.36-1.82-4.8-1.58-7.08.47-4.6,1.75-9.12,2.83-14.32Zm-12.81,241.4c2.73-2.86,5.86-4.63,5.92-6.49.19-5.92-5.28-6.74-9.34-6.99-1.76-.11-3.78,3.85-5.68,5.96,2.68,2.22,5.37,4.44,9.1,7.53Z"/><path class="cls-4" d="m306.79,717.52v-62.75c-5.01,0-8.71.4-12.29-.07-15.98-2.08-24.9-12.28-29.97-26.7-1.93-5.51-7.21-7.92-10.27-3.93-5.31,6.91-12.37,14.36-13.39,22.26-1.76,13.54-4.99,28.04,2.71,41.38,1.09,1.89,1,4.46,1.22,5.57-15.09-.69-29.69-1.36-43.63-2-29.95,2.19-49.16,14.16-49.48,25.45-.05,1.57.11,8.79,13.19,17.36,3.31.94,7.04,1.79,11.13,2.43,6.79,1.05,12.9,1.21,18.02,1-.01.08-.03.18-.04.27,2.72.19,5.44.37,8.15.55h99.28c.35-.4.69-.81,1.02-1.22,1.4-1.74,2.48-3.54,3.25-5.45,1-2.48,1.27-4.53,1.43-5.91.22-1.9.34-4.77-.35-8.24Z"/><path class="cls-4" d="m387.03,735.95c1.65,1.03,3.43,1.81,5.29,2.41,2.56-.03,5.12-.08,7.67-.19,4.37-.18,8.75-1.1,13.08-.88.59.03,1.22.14,1.85.29,5.14-.28,10.28-.48,15.42-.61,3.09-.54,6.2-.39,9.3-.17,9.49-.12,18.98-.07,28.47,0,14.81.1,29.61-.15,44.42-.39,4.19-.94,9.03-1.01,15.17-1.86,1.46-2.65,4.79-9.64,2.99-17.81-2.47-11.14-13.49-19.92-27.46-21.19-21.05.07-42.09.14-63.14.21,11.99-21.72,2.19-44.83,6.16-66.16,9.93-2.72,19.8-4.81,29.22-8.16,9.53-3.39,11.42-8.5,8.48-18.41-8.67,1.42-17.3,3.37-26.04,4.14-18.68,1.66-24.18-1.92-31.54-19.02-.67-1.57-1.5-3.07-2.33-4.56-8.33-14.8-7.76-19.35,4.06-31.61,1.5-1.56,3.17-2.96,4.76-4.44l.26-2.27c-2.65-.35-5.95-1.89-7.85-.86-13.02,7.05-17.21,20.2-22.59,32.37,3.06,1.31,5.12,2.2,7.18,3.08-1.13,2.3-1.68,5.29-3.48,6.78-7.49,6.19-10.1,13.43-6.53,22.68.61,1.59,1.07,3.3,1.25,4.99,2.43,22.57-.15,30.61-17.93,36.26-1.59.51-3.09,3.44-3.39,5.43-.55,3.59-.17,7.33-.17,11.01,0,15.13,0,30.25,0,45.35.33,3.95.54,7.91,1.07,11.84.68,5.05,1.93,8.94,6.39,11.74Z"/><path class="cls-2" d="m501.37,143c-12.21-11.7-26.97-19.03-43.51-21.43-12.29-1.78-23.76-3.58-33.27-12.78-3.83-3.7-9.79-5.57-15.1-7.29-15.37-4.97-30.77-9.97-46.41-13.94-11.75-2.98-24.04-3.89-35.04,2.79-5.73,3.48-11.15,4.08-17.4,2.67-18.11-4.08-33.59,1.25-47.92,12.6-5.77,4.57-12.95,7.76-19.96,10.28-11.48,4.11-23.5,6.7-35,10.75-25.35,8.93-34.79,27-31.82,53.54,3.19,28.44,3.91,57.14,6.1,85.7,2.17,28.31,4.79,56.58,7.33,84.86.18,2.01.8,4.82,2.2,5.72,5.03,3.23,10.49,5.79,17.09,9.29-3.65-55.56-7.21-109.86-10.72-163.29h41.24c-.54,13.55,3.04,24.56,12.41,32.31,22.44,18.56,63.46,5.25,71.26-22.72.63-2.27,1.08-4.59,1.39-5.91h139.19c.11.38.23.77.35,1.15,2.89-1.5,6.46-2.06,10.86-1.3.02-.6.04-1.2.06-1.8,4.52-.7,8.95-1.38,13.87-2.14,0,3.24.19,5.9-.03,8.53-.87,10.25-2.07,20.47-2.78,30.72-2.08,30.28-4.04,60.57-5.86,90.86-.12,2.06.61,5.29,2.04,6.13,4.94,2.93,10.37,5.06,16.22,7.77,2.21-32.45,4.05-63.99,6.6-95.47,1.93-23.88,3.9-47.81,7.51-71.47,2.21-14.48-.48-26.22-10.87-36.16Zm-15.16,36.88c-11.87,6.49-25,5.07-37.79,5.85-9.7.59-19.36,1.77-29.06,2.24-8.01.39-16.07.42-24.09.05-6.4-.3-11.72-3.21-15.18-8.88-2.9-4.74-5.76-4.04-9.17-.35-11.18,12.08-39.53,14.48-51.02-1.56-1.36-1.9-4.38-2.96-6.84-3.67-4.33-1.26-6.31.62-6.15,5.28.25,7.33.45,14.69.07,22.01-.55,10.42-6.72,17.64-15.86,21.15-10.85,4.16-21.7,3.51-30.47-5.72-6.07-6.39-7.86-13.95-5.79-22.4.75-3.07,2.45-5.94,2.99-9.03.66-3.72.56-7.58.79-11.39-4.34.8-9.4.48-12.85,2.68-4.31,2.74-6.51,8.32-13.06,8.16-11.27-.28-22.66.6-32.96-5.3-9.15-5.24-10.95-13.51-3.68-21.37,4.89-5.28,10.72-10.57,17.2-13.3,12.35-5.2,25.53-8.4,38.24-12.81,3.72-1.29,7.82-3.17,10.3-6.04,13.89-15.98,37.41-20.82,56.03-10.65,3.3,1.8,6.12,4.76,8.63,7.65,4.14,4.75,7.85,9.88,12,15.19,3.32-8.4-.07-15.39-12.03-26.3,5.94-9.77,19.21-13.41,33.3-8.45,11.31,3.98,22.34,8.76,33.55,13.03,3.17,1.21,6.51,2.46,9.85,2.69,12.41.85,21.11,7.18,27.1,17.64,3.07,5.36,6.18,8.15,11.62,2.43,1.09-1.15,3.71-1.69,5.37-1.33,15.66,3.39,31.11,7.34,42.65,19.7,7.89,8.45,6.55,17.21-3.67,22.8Z"/><path class="cls-4" d="m472.88,571.63c-3.08,1.09-6.09,2.55-9.26,3.18-7.35,1.47-14.75,3.29-22.17,3.52-5.32.17-10.24-3.19-10.4-9.26-.15-5.9,4.34-8.25,9.72-8.99,4.84-.67,9.92-.72,14.43-2.34,4.67-1.67,8.8-4.89,13.16-7.44-.34-1.02-.68-2.03-1.02-3.05-4.98-.24-10.09.11-14.91-.91-4.56-.96-9.67-2.4-13.01-5.36-6.6-5.84-3.84-15.14,4.71-17.38,9.44-2.47,19.24-3.8,28.45-6.89,39.27-13.18,52.21-69.41,23.35-99.14-11.74-12.1-24.6-22.31-39.75-29.77-8.76-4.32-14.18-17.33-11.64-26.26,3.23-11.33,11.57-16.98,23.96-15.82,14.69,1.38,27.1,8.68,38.46,17.1,42.29,31.33,61.82,86.26,45.59,135.99-11.64,35.66-30.13,68.18-63,89.65-10.55,6.89-22.2,10.2-34.95,8.13-1.91-.31-4.05-.68-5.51-1.78-1.95-1.48-3.35-3.69-4.98-5.59,1.99-1.49,3.8-3.41,6.02-4.38,6.89-3,13.93-5.62,20.92-8.4,1.35-.54,2.7-1.1,4.05-1.64-.74-1.06-1.48-2.12-2.21-3.17Z"/><path class="cls-1" d="m328.85,501.71c-5.22-14.68-14.65-24.61-29.74-29.02-2.5-.73-4.98-1.54-6.44-3.09-1.85-.46-3.8-.79-5.72-.97-.19-.01-.39-.02-.58-.03,0,.19,0,.38,0,.58-3.1.74-6.11,1.58-9.17,2.17-11.07,2.15-21.16,6.25-28.89,14.81-10.88,12.06-15.04,25.96-9.04,41.44,5.81,14.98,17.14,23.5,33.45,24.72,3.87.29,7.28.5,7.27,5.9,0,1.03,3.21,3.03,4.83,2.93,5.15-.34,9.9-1.83,9.13-8.96,26.52-2.67,42.06-30.33,34.9-50.47Zm-12.77,17.64c-2.06,8.8-7.2,15.58-16.09,18.51-12.05,3.97-24.23,4.15-35.54-2.06-10.71-5.89-15.75-19.06-12.59-30.28,3.76-13.34,16.91-22.67,31.67-22.46,23.45.33,37.39,15.7,32.56,36.29Z"/><path class="cls-4" d="m183.66,4.15c2.49,1.9,7.53,4.27,10.42,8.22,9.39,12.83,18.07,26.18,26.82,39.47,2.28,3.47,5.99,7.33.62,11.41-4.9,3.72-9.83,8.38-16.2,3.02-9.55-8.03-18.89-16.31-28.23-24.59-3.11-2.76-6.04-5.74-8.84-8.82-4-4.39-8.31-8.96-4.91-15.56,3.65-7.1,9.14-12.01,20.32-13.14Z"/><path class="cls-4" d="m507.79,20.09c-.78,1.49-1.43,3.72-2.83,5.27-12,13.23-24.11,26.36-36.25,39.47-5.28,5.7-10.48,4.43-16.13.12-5.81-4.43-3.61-9.1-.9-13.55,8.88-14.64,17.85-29.25,27.19-43.6,3.97-6.1,10.15-6.28,16.38-3.52,6.62,2.93,11.37,7.52,12.54,15.82Z"/><path class="cls-4" d="m288.08,306.17c-15.02-.14-24.96-9.81-24.76-24.1.17-12.6,11.41-23.88,23.44-23.53,12.35.36,23.74,12.68,23.62,25.53-.12,13.07-9.36,22.21-22.3,22.09Z"/><path class="cls-4" d="m392.27,305.13c-11.73-.05-19.28-8-19.2-20.23.08-12.97,10.87-24.7,22.54-24.5,11.13.19,23.87,12.5,23.89,23.08.02,12.85-11.14,21.73-27.22,21.66Z"/><path class="cls-1" d="m198.09,425.35c-1.68-1.26-4.31-2.4-5.47-4.4-.78-1.34-.15-4.53,1.02-5.77,3.49-3.67,7.09-7.7,11.48-9.97,25.1-12.96,51.54-18.2,79.56-11.87,3.82.86,9.04,1.55,7.53,7.44-.45,1.76-3.84,3.96-5.86,3.94-27.96-.3-54.36,5.95-79.54,17.91-2.4,1.14-5.11,1.61-8.72,2.72Z"/><path class="cls-4" d="m595.91,103.9c.02,6.19-4.18,9.34-9.06,11.23-10.7,4.15-21.59,7.83-32.44,11.6-3.23,1.12-6.78,1.49-9.82,2.95-6.2,2.98-9.45.27-12.25-5-2.86-5.38-.98-8.62,3.78-11.4,13.09-7.64,25.8-15.97,39.21-22.98,10.2-5.32,20.69,2.13,20.58,13.59Z"/><path class="cls-4" d="m602.19,227.88c.02,6.19-4.18,9.34-9.06,11.23-10.7,4.15-21.59,7.83-32.44,11.6-3.23,1.12-6.78,1.49-9.82,2.95-6.2,2.98-9.45.27-12.25-5-2.86-5.38-.98-8.62,3.78-11.4,13.09-7.64,25.8-15.97,39.21-22.98,10.2-5.32,20.69,2.13,20.58,13.59Z"/><path class="cls-4" d="m88.31,106.48c-.18-12.72,10.38-20.77,19.41-16.18,14.59,7.41,28.64,15.89,42.82,24.1,3.42,1.98,5.62,5.03,3.03,9.18-2.41,3.86-4.4,9.06-10.44,7-15.72-5.38-31.44-10.81-46.89-16.89-3.59-1.41-6.13-5.5-7.92-7.2Z"/><path class="cls-2" d="m470.06,505.89c1.41-31.21,2.74-60.81,4.08-90.54,10.45,1.58,18.62,12.33,18.27,19.87-.84,17.8-1.45,35.66-3.45,53.34-1.04,9.13-9.47,12.85-18.89,17.33Z"/><path class="cls-4" d="m109.34,251.84c6.75,1.36,17.32,3.4,27.83,5.65,5.92,1.27,7.96,5.31,6.67,11.01-1.28,5.7-3.77,10.31-10.83,9.38-10.43-1.38-20.95-2.34-31.22-4.52-5.04-1.07-11.82-2.29-10.99-10.27.75-7.22,6.34-11.38,18.53-11.25Z"/><path class="cls-4" d="m82.66,174.94c6.75,1.36,17.32,3.4,27.83,5.65,5.92,1.27,7.96,5.31,6.67,11.01-1.28,5.7-3.77,10.31-10.83,9.38-10.43-1.38-20.95-2.34-31.22-4.52-5.04-1.07-11.82-2.29-10.99-10.27.75-7.22,6.34-11.38,18.53-11.25Z"/><path class="cls-1" d="m228.2,447.64c6.27-.04,14.17,7.48,14.17,13.49,0,5.97-7.42,13.39-13.3,13.28-6.96-.12-13.43-6.79-13.41-13.8.02-6.09,6.63-12.93,12.54-12.97Z"/><path class="cls-1" d="m336.21,461.4c.11-7.36,5.36-13.82,11.27-13.86,6.77-.04,12.9,6.85,12.75,14.29-.14,6.61-6.24,13.53-12,13.61-6.3.09-12.12-6.72-12.01-14.05Z"/><path class="cls-4" d="m396.89,226.94c4.73,3,9.26,5.26,13.03,8.42,3.65,3.07,2.65,6.82-.25,10.33-2.91,3.53-5.52,3.1-9.55,1.37-3.54-1.52-8.09-.58-12.17-1.02-2.5-.27-6.73-.6-7.06-1.77-.85-3.04-1.26-8.19.48-9.58,4.19-3.35,9.71-5.02,15.51-7.76Z"/><path class="cls-1" d="m282.39,510.79c-.78,5.4-1,9.61-2.06,13.59-1.64,6.14-6.4,7.17-11.06,2.73-6.02-5.73-6.01-22.75.05-28.7,3.6-3.54,7.37-3.39,9.61,1.02,1.92,3.78,2.55,8.21,3.47,11.36Z"/><path class="cls-1" d="m288.98,511.94c.98-3.82,1.47-8.55,3.4-12.59,2.67-5.59,7.54-5.79,10.51-.44,4.48,8.08,4.57,16.89,1.09,25.32-.86,2.08-4.47,4.32-6.68,4.2-2.19-.13-5.1-2.75-6.11-4.99-1.44-3.2-1.44-7.04-2.2-11.5Z"/><path class="cls-4" d="m265.82,366.83c12.39.08,24.85,1.63,37.33,4.73,5.78,1.43,10.6,6.75,16.84,11.18.38-.37.77-.75,1.19-1.13,12.6-11.59,27.76-18.13,44.59-20.3,12.7-1.64,25.55-2.4,40.64,6.15-4.25,3.56-8.18,7.11-12.01,10.52,2,4.45,2.82,9.65,2.16,15.23-.51,4.23-1.39,8.45-2.46,12.61,14.28-10.86,24.18-26.61,28.6-46.34.8-3.57,1.38-7.3,1.32-10.95-.4-23.41-5.92-23.97-22.61-23.53-17.69.46-35.41.1-53.11.1-34.61-2.1-60.89-2.61-71.84-1.81-3.77.27-9.92.96-12.85,5.37-1.31,1.97-1.94,4.46-1.72,7.44.76,10.18,1.45,20.86,3.94,30.73Z"/></svg>