<?xml version="1.0" encoding="UTF-8"?><svg id="Layer_1" xmlns="http://www.w3.org/2000/svg" viewBox="0 0 683.91 741.86"><defs><style>.cls-1{fill:#000333;stroke-width:0px;}</style></defs><path class="cls-1" d="m525.36,680.12c-11.31-12.54-27.86-14.76-35.59-15.24-18.8-.34-37.6-.68-56.41-1.02,9.5-18.56,1.46-38.55,4.96-56.76,9.77-3.46,19.2-6.56,28.43-10.17,6.19-2.42,10.08-7.03,10.51-14.06.53-8.61,1.08-17.22,1.77-25.82,1.94-24.19,3.91-48.39,5.96-72.57,1.82-21.49,3.66-42.99,5.71-64.46,1.09-11.35-8.4-7.23-13.36-9.05-5.45-2.01-5.9,3.08-6.34,6.74-1.96,16.3-4.15,32.59-5.53,48.94-2.96,35.19-5.58,70.4-8.05,105.63-.41,5.79-2.55,9.09-8.24,9.94-15.16,2.25-30.26,5.81-45.49,6.42-33.69,1.35-67.44,1.62-101.16,1.56-23.99-.05-47.94-1.62-71.22-8.45-3.81-1.12-5.44-2.51-5.66-7.04-1.43-30.44-3.11-60.88-5.19-91.28-2.71-39.56-6.13-79.08-8.75-118.64-2.37-35.81-4-71.66-6.09-107.49-.79-13.57-1.94-27.12-2.91-40.47,8.21,0,15.77-.41,23.23.26,2.19.2,5.22,3.12,5.96,5.41,10.22,31.38,43.12,41.45,67.58,26.04,10.67-6.72,16.97-16.16,18.63-30.43,37.95-.04,75.9.03,113.83.19,3.01.01,9.48.04,12.49.06,3.27-.08,6.53-.16,9.8-.24l26.99-3.68c-2.7,40.62-5.39,81.24-8.17,123.06,4.39,0,9.18.5,13.79-.24,1.89-.3,4.57-3.11,4.82-5.04,2.65-20.83,5.11-41.7,7.17-62.6,2.68-27.09,4.39-54.29,7.6-81.32,2.38-20.01-5.83-33.79-21.8-44.27-13.45-8.82-28.41-12.65-44.27-13.77-2.45-.17-5.86-.62-7.09-2.25-14.37-19.01-34.35-23.74-56.66-23.22-3.07.07-6.58-.55-9.2-2.05-18.67-10.72-37.78-11.3-57.56-3.54-3.2,1.25-6.71,2.03-10.14,2.3-17.15,1.34-32.93,5.52-44.89,19.18-1.68,1.92-5.04,2.74-7.77,3.33-18.85,4.06-36.99,9.81-52.7,21.51-17.06,12.7-21.66,26.33-16.57,46.59,1.69,6.72,2.41,13.75,2.91,20.68,2.12,29.31,3.99,58.63,5.95,87.95,1.02,15.23,2.01,30.47,3.04,45.97-1.57.18-2.63.52-3.62.37-27.53-4.13-50.72-15.32-63.57-41.53-5.08-10.35-8.37-21.57-12.44-32.41-.98-2.62-1.84-5.28-2.32-6.67-10.49,1.74-19.66,3.88-28.94,4.62-9.55.77-19.2.17-29.62.17.56,29.75,9.28,55.78,25.51,79.01,28.65,40.99,71.48,51.81,118.19,53.06,2.38,30.79,4.9,60.82,6.96,90.88,1.93,28.26,3.59,56.55,4.91,84.84.52,11.26,5.71,18.12,16.22,21.39,1.8.56,3.51,1.66,5.34,1.85,7.48.79,8.2,5.48,8.27,11.86.19,16.44,1.14,32.88,1.76,48.71h-41.54c-1.38.02-30.93.81-45.67,14.29,0,0-5.49,5.02-11.65,18.47-.36.79-1.73,3.41-.46,4.68,0,0,0,0,0,0,.52,2.67,5.8,4.72,9.24,6.38,1.77.85,4.25.26,6.41.26,46.09-.01,92.18-.02,138.27-.04,1.74-1.35,3.35-2.8,4.72-4.38,3.69-4.25,4.94-9.81,5.54-15.37h-.85v-76.68h69.87v76.68h-1.2c.04,7.48,1.36,14.4,9.11,18.34.96.49,1.93.93,2.92,1.36,32.11-.02,64.23-.03,96.34-.06,16.18-.02,32.38-.3,48.54-1.19,2.61-.14,5.93-2.69,7.34-6.14,2.97-7.26-5.57-16.73-7.94-19.35ZM198.1,171.01c4.82-5.59,10.74-10.99,17.29-14.17,12.48-6.04,25.04-12.85,39.92-11.32,1.47.15,4.04-2.88,4.85-4.93,5.7-14.42,31.2-23.19,44.01-14.29,6.77,4.7,12.37,11.06,18.64,16.51,1.43,1.24,3.43,1.81,5.18,2.69.41-2.14,1.89-5.01,1.03-6.29-2.95-4.39-6.38-8.61-10.28-12.18-5.74-5.24-5.61-9.46,1.21-13.41,10.02-5.8,32.35-2.52,39.88,6.65,3.5,4.26,6.72,5.11,11.72,3.94,14.32-3.36,28.33-2.38,39.72,7.69,6.02,5.32,10.19,12.72,16.13,20.41,17-7.66,32.43-.02,47.16,9.73,3.88,2.57,7.16,6.63,9.58,10.69,4.08,6.82,2.65,12.57-4.85,16.04-6.35,2.94-13.57,4.68-20.57,5.41-21.37,2.23-42.83,3.67-64.24,5.53-8.49.74-16.11-1.02-22.19-7.28-3.41-3.51-5.89-2.52-9.54.21-14.83,11.08-35.7,9.72-49.67-2.63-1.79-1.58-3.75-3.24-5.94-4.07-7.04-2.67-9.97-.12-8.87,7.33.71,4.8,1.69,9.58,2,14.41.85,13.15-2.66,18.86-14.39,24.28-10,4.62-22.87,2.24-30.66-5.66-6.92-7.02-7.77-16.02-3.44-27.04,1.82-4.64,8.06-9.86,1.02-14.78-4.83-3.37-15.06,1.31-18.8,7.34-.99,1.59-3.13,3.25-4.9,3.45-10.14,1.15-19.99.02-28.52-6.17-6.75-4.89-8.12-11.52-2.46-18.1Z"/><path class="cls-1" d="m573.57,266.71c17.79,2.15,34.21,4.82,50.73,5.91,12.59.83,12.65-.06,10.65,12.44-10.79,67.47-56.6,110.32-124.78,116.08-13.09,1.1-26.36.9-39.48.18-5.95-.33-12.11-2.68-17.53-5.4-13.76-6.89-17.93-15.47-15.08-28.68,2.28-10.58,13.87-19.31,26.67-19.76,7.27-.25,14.57.06,21.85-.04,42.68-.56,73.31-24.91,83.35-66.19,1.26-5.19,2.58-10.37,3.62-14.54Z"/><path class="cls-1" d="m13.68,207.7c3.13,2.18,5.63,3.65,7.8,5.49,10.16,8.64,21.15,8.73,32.27,2.61,4.76-2.62,9.01-3.15,14.29-2.04,8.74,1.84,16.35-1.87,21.15-8.77,2.77-3.97,4.97-3.23,8.53-3.11,9.27.32,18.62.47,27.83-.47,2.79-.28,5.2-4.33,8.88-7.63-11.15,0-19.68.37-28.16-.11-7.15-.41-13.67-2.52-17.47-9.72-5.27-9.98-1.61-21.13,9.46-22.58,12.65-1.66,25.93-2.19,38.47-.24,15.55,2.42,24,20.69,19.2,37.09-13.47,46-60.7,73.82-107.74,63.46-18.95-4.17-37.3-28.47-35.91-47.63.13-1.75.76-3.47,1.41-6.33Zm65.87,14.85c-5.94,4.12-7.75,8.02-3.77,11.71,1.47,1.36,5.59-.14,8.5-.33-1.51-3.64-3.02-7.28-4.72-11.38Z"/><path class="cls-1" d="m671.04,208.28c1.87,13.88-3.74,24.71-10.89,34.76-11.6,16.32-28.35,21.45-47.54,20.23-33.66-2.15-60.57-16-78.25-45.61-7.06-11.82-9.28-24.62-7.24-38.13,1.59-10.49,8.74-17.75,19.29-18.5,10.71-.75,21.51-.74,32.25-.43,10.19.3,15.3,4.35,16.75,11.99,1.43,7.52-2.96,16.9-11.15,19.42-7.21,2.22-15.24,1.75-22.88,2.69-3.58.44-7.09,1.41-10.63,2.14,3.04,2.13,5.98,5.88,9.14,6.08,8.9.57,17.9-.46,26.86-.53,2.2-.02,5.15.57,6.48,2.04,6.9,7.63,13.79,13.57,24.88,7.09,1.9-1.11,6.28-.47,8.04,1.06,14.46,12.52,30.06,8.71,41.94-2.79.49-.48,1.27-.67,2.95-1.51Zm-62.77,12.58c-.72-.03-1.44-.06-2.16-.09-1.6,3.3-3.76,6.47-4.54,9.95-.37,1.64,1.89,3.88,2.95,5.85,1.8-1.41,5.01-2.71,5.13-4.25.3-3.76-.83-7.63-1.38-11.46Z"/><path class="cls-1" d="m382.49,332.63c2.28-.01,8.16-.05,11.94,3.82,2.38,2.44,3.56,6.1,3.54,11.18-.07,18.63-9.3,33.25-23.35,44.13-23.13,17.92-49.18,20.84-76.32,10.34-20.22-7.82-36.48-33.18-36.41-55.01.02-4.7.82-7.96,2.89-10.04,3.09-3.12,7.87-2.97,9.48-2.95,36.08.57,72.15-1.32,108.24-1.48Zm-80.43,51.62c21.84,13.36,61.59,5.7,74.16-17.95-18.42-10.89-62.59-.43-74.16,17.95Z"/><path class="cls-1" d="m56.5,190.22c-.96,3.03-1.6,9.01-4.52,13.5-6.67,10.25-20.65,9.37-29.44-1.64-5.02-6.29-9.5-13.08-13.68-19.97-4.97-8.18-2.37-19.61,5.23-25.44,8.41-6.44,22.89-5.78,30.56,1.68,8.2,7.97,11.05,18.2,11.85,31.87Z"/><path class="cls-1" d="m625.82,189.16c4.1-9.17,6.85-19.32,12.61-27.28,8.53-11.79,24.3-11.7,33.86-1.55,5.71,6.06,7.01,14.95,2.9,21.63-4.09,6.64-8.29,13.23-12.7,19.66-5.81,8.46-13.32,11.3-21.45,8.49-8.7-3-13.3-10.01-13.18-20.05-.68-.3-1.36-.6-2.04-.9Z"/><path class="cls-1" d="m596.2,201.17c13.27-28.37,12.38-36.59-3.9-49.39,3.78-14.49,17.35-25.31,30.89-24.62,11.8.61,19.7,7.32,21.7,18.11-23.8,12.31-24.73,35.1-26.73,59.01-7.2-1.02-14.02-1.99-21.96-3.11Z"/><path class="cls-1" d="m92.95,150c-18.63,14.86-20.84,26.12-7.79,47.88-2.89,1.75-5.59,4.08-8.73,5.14-8.37,2.84-13.37-1.01-12.26-9.7,2.51-19.72-4.27-35.3-19.49-47.81-1.57-1.29-2.18-5.79-1.19-7.78,4.21-8.51,16.6-12.5,25.98-9.32,11.08,3.75,19,10.76,23.49,21.59Z"/><path class="cls-1" d="m272.87,321.28c-15.74-.67-25.3-10-24.56-23.95.64-12.01,13.91-24.95,25-24.38,12.72.65,24.56,14.17,23.76,27.13-.75,12.11-11.73,21.74-24.19,21.21Z"/><path class="cls-1" d="m379.41,320.39c-12.58.24-21.37-7.7-21.88-19.76-.54-12.6,11.59-25.62,23.98-25.75,12.42-.13,24.9,11.89,24.92,24.01.02,13.03-10.22,21.19-27.02,21.5Z"/><path class="cls-1" d="m600.13,122.57c-6.47,8.94-12.47,17.4-18.71,25.68-.96,1.27-3,2.43-4.55,2.45-8.31.06-16.64,0-24.91-.67-1.61-.13-4.38-3.25-4.25-4.8,1.1-13.65,7.86-23.78,20.43-29.51,10.59-4.83,23.03-1.91,31.99,6.86Z"/><path class="cls-1" d="m87.68,120.2c2.26-7.03,15.41-9.47,28.91-2.16,9.46,5.12,15.43,13.22,17.3,23.97.89,5.13-.7,7.69-6.77,7.95-13.12.58-25.64,1.3-31.35-14.38-1.96-5.39-5.35-10.27-8.09-15.38Z"/><path class="cls-1" d="m551.98,471.57c17.53,2.86,35.06,5.68,52.58,8.61,6.29,1.05,8.87,5.51,7.66,11.16-1.18,5.47-5.27,9.07-11.34,7.71-17.34-3.88-34.62-8.01-51.87-12.27-3.96-.98-7.57-2.48-6.31-8.33,1.2-5.54,4.11-7.13,9.28-6.88Z"/><path class="cls-1" d="m89.55,498.51c-8.86-.51-13.2-3.24-13.9-9.6-.65-5.9,3.68-8.04,8.49-8.79,16.71-2.61,33.43-5.21,50.22-7.19,2.48-.29,6.69,2.24,7.75,4.54,1.66,3.62,1.32,8.26-4.13,9.57-16.97,4.08-33.97,8.06-48.42,11.48Z"/><path class="cls-1" d="m559.45,453.5c-7.4-.88-12.92-.86-17.93-2.46-2.1-.67-4.19-4.75-4.25-7.33-.04-1.83,3.16-5.16,5.19-5.4,18.17-2.11,36.38-3.82,54.62-5.3,4.65-.38,10.42-.97,11.23,6.02.78,6.66-4.36,8.06-9.26,8.81-13.8,2.13-27.64,3.96-39.6,5.64Z"/><path class="cls-1" d="m116.14,453.08c-10.68-1.18-20.6-2.19-30.49-3.39-6.43-.78-9.4-4.08-8.5-11.01.91-7.1,5.45-7.01,10.59-6.38,15.24,1.86,30.51,3.55,45.68,5.88,2.85.44,5.28,3.52,7.91,5.38-2.48,2.48-4.57,6.32-7.52,7.17-5.86,1.68-12.19,1.72-17.66,2.36Z"/><path class="cls-1" d="m528.26,506.7c2.7.73,4.42.86,5.79,1.61,11.79,6.46,23.69,12.75,35.19,19.71,4.18,2.53,8.89,6.17,4.64,12.45-4.08,6.02-8.68,5.83-14.4,1.97-9.82-6.62-20.02-12.67-29.93-19.15-2.42-1.58-5.05-3.57-6.29-6.02-1.03-2.05-.89-5.4.09-7.54.76-1.65,3.64-2.32,4.91-3.04Z"/><path class="cls-1" d="m106.93,545.08c-1.81-1.91-4.85-3.8-5.69-6.41-.7-2.16.38-6.28,2.12-7.58,5.13-3.82,10.79-7.08,16.6-9.79,7.55-3.53,15.28-6.85,23.26-9.14,2.73-.78,6.42,1.79,9.67,2.83-1.19,3.11-1.47,7.76-3.71,9.07-11.61,6.78-23.71,12.73-35.68,18.88-1.65.85-3.56,1.19-6.56,2.16Z"/><path class="cls-1" d="m524.26,66.96c-.72,1.13-1.73,3.69-3.55,5.39-9.22,8.61-18.5,17.18-28.17,25.28-1.7,1.43-6.78,1.7-7.8.46-1.95-2.39-3.95-7.82-2.73-9.24,9.24-10.74,18.77-21.33,29.21-30.89,5.52-5.06,12.89-.28,13.04,9.01Z"/><path class="cls-1" d="m241.78,76.9c-2.89,2.95-5.01,6.5-8.04,7.67-1.81.7-6.35-1.68-7.45-3.81-5.52-10.76-10.82-21.71-14.98-33.04-.92-2.52,2.31-7.75,5.05-10,1.79-1.47,8.33-.86,9.01.58,5.83,12.35,10.81,25.1,16.41,38.59Z"/><path class="cls-1" d="m150.25,56.98c2.65,1.37,4.66,1.89,5.92,3.15,9.29,9.32,18.56,18.66,27.54,28.28,3.07,3.29,4.64,7.24.25,11.27-4.42,4.07-7.52.91-10.42-1.72-9.18-8.3-18.39-16.6-27.01-25.47-1.81-1.86-1.98-6.29-1.36-9.21.5-2.36,3.32-4.24,5.08-6.3Z"/><path class="cls-1" d="m423.55,73.82c4.27-12.81,7.57-23.84,11.67-34.56,2.03-5.3,7.04-5.3,11.67-3.37,4.42,1.84,7.12,5.05,5.08,10.17-4.06,10.19-7.97,20.47-12.71,30.35-1.09,2.27-5.65,4.69-7.91,4.15-2.95-.72-5.2-4.32-7.8-6.74Z"/><path class="cls-1" d="m383.95,258.01c-3.37.68-6.07,1.9-8.57,1.56-3.05-.41-7.18-1.34-8.53-3.49-1.35-2.16-1.02-6.98.59-9.12,8.13-10.79,27.01-10.37,35.33.24,3.09,3.94,3.2,7.5.12,11.62-3.08,4.13-6.23,4.12-10.43,1.97-2.78-1.42-6-1.99-8.51-2.79Z"/></svg>