<?xml version="1.0" encoding="UTF-8"?><svg id="Layer_1" xmlns="http://www.w3.org/2000/svg" viewBox="0 0 683.91 741.86"><defs><style>.cls-1{fill:#000333;stroke-width:0px;}</style></defs><path class="cls-1" d="m428.66,619.22c21.85-6.06,26.47-13.35,28.06-36.6.96-14.04,2.64-28.02,3.79-42.04,5.75-70.17,11.43-140.35,17.17-210.52.45-5.52,1.2-11.01,1.81-16.55,65.55,9.18,119.14-48.18,131.34-91.54-22.94-10.22-45.65-20.34-69.84-31.12-10.16,29.03-31.78,49.91-60.38,68.1,0-9.84-.43-17.53.08-25.15,2.04-30.52,4.31-61.03,6.62-91.53.59-7.74.79-15.64,2.58-23.12,8.11-33.93-3.53-57.26-36.37-67.95-24.31-7.91-48.37-14.3-70.46-29.23-17.06-11.52-39.09-17.32-59.75-21.28-13.31-2.55-28.14,2.77-42.28,4.65-5.6.75-11.38,3.16-16.71,2.36-22.45-3.38-42.25.82-59.46,16.46-4.04,3.67-10.01,5.46-15.35,7.42-20.89,7.67-42.66,13.41-62.63,22.95-26.8,12.8-34.81,32.07-31.18,62.13,1.45,12.02.79,24.29,1.73,36.4,1.92,24.68,3.25,49.46,6.75,73.93,3.11,21.77,5.5,22.43,28.38,18.42v-100.6h32.8c.73,2.61,1.3,4.43,1.74,6.27,9.14,38.49,23.65,45.18,62.67,42.16,27.41-2.12,36.36-15.6,40.33-38.24,1.26-7.19,3.86-10.24,12.43-10.07,51.94,1.02,103.9,1.55,155.84,1.22,12.89-.08,18.39,2.23,17.31,16.6-3.54,46.95-5.81,93.99-8.86,140.98-5.76,88.67-12.19,177.29-17.16,266-.91,16.32-6.38,24.13-22.18,25.42-4.33.35-8.56,1.94-12.89,2.31-69.37,5.91-138.67,7.63-207.88-2.56-13.92-2.05-23.92-5.55-23.1-22.44.44-9.15-.86-18.42-1.84-27.59-1.26-11.67-2.99-23.3-4.52-34.94-1.34-.26-2.67-.52-4.01-.78-7.1,8.64-24.48,6.47-23.17,23.81,1.21,15.98,2.78,31.95,4.77,47.85,3.62,29.03,5.87,31.13,34.26,39.24,4.61,1.32,11.89,4.61,12.23,7.64,2.01,17.51,2.32,35.21,3.31,55.11-25.67,2.08-45.86,7.61-59.57,12.34,0,0-16.51,5.7-40.1,23.63-3.48,2.65-7.93,6.94-8.39,12.1-.28,3.14,5.18,8.64,9.08,9.86,5.8,1.8,12.49.89,18.81.89,49.1-.02,98.2-.05,147.29-.08.37-.24.75-.47,1.11-.72.55-.37,1.08-.77,1.61-1.16.16-.15.35-.32.6-.56,1.24-1.16,2.49-2.3,3.64-3.55.14-.16,2.67-2.73.91-.94-1.67,1.7.4-.59.73-1.08.99-1.48,1.81-3.03,2.63-4.6.24-.81.58-1.62.82-2.43.01-.04.02-.08.03-.12-.17-5.61.14-11.2.43-16.83-.69-4.11-.04-11.01-.18-22.69-.19-15.55.43-31.11.21-46.65-.11-8.29,2.34-12.53,11.56-12.33,16.02.36,32.07.12,48.09-.48,9.75-.37,12.72,3.92,12.24,13.08-.56,10.66-.13,21.38-.13,32.07-.01,5.52-.02,10.34-.12,14.56.91,10.12,1.14,20.22,1.27,30.45.03,2.49.08,4.9.14,7.27.02.05.05.12.06.15.9,1.91,1.87,3.79,2.98,5.6.7,1.14,1.47,2.23,2.21,3.34.03.05.05.08.08.12.07.07.12.13.2.21,1.57,1.69,3.06,3.4,4.74,4.99.81.76,1.64,1.51,2.49,2.23,50.3-.02,100.61-.04,150.91-.08,3.39,0,7.42.86,10.03-.64,3.95-2.26,7.94-5.49,8.99-9.24,2.54-9.15-10.36-19.57-15.14-23.44-19.06-15.4-43.15-17.41-58.72-16.92h-32.26c.5-17.23,1.66-35.43,1.32-53.59-.19-10.4,2.84-15.45,13.39-18.38Zm11.24-500.77c-22.22,1.71-44.54,3.66-66.77,3.11-9.83-.24-19.38-6.73-29.33-9.39-4.6-1.23-11.08-1.99-14.59.29-20.69,13.44-35.83,12.98-56.09-1.49-5.32-3.8-12.91-4.43-19.45-6.52-1.43,6.32-4.14,12.66-4.08,18.96.24,26.09-4.33,34.52-23.87,40.83-18.83,6.08-34.41-5.01-34.43-24.66,0-4.84,1.32-9.77.71-14.49-.77-6.05-2.2-16.68-4.52-17.01-7.81-1.1-17.66-.86-23.95,3.19-10.82,6.96-31.85,7.15-38.44-3.93-2.45-4.12-1.72-12.94,1.23-16.82,4.77-6.27,11.9-11.91,19.23-14.83,18.26-7.28,37.24-12.74,55.79-19.3,3.45-1.22,6.61-3.87,9.33-6.47,25.15-24.02,49.01-23.36,72.86,2.23,4.47,4.8,8.83,9.71,13.23,14.56,2.17-1.31,4.34-2.63,6.51-3.94-4.42-7.08-8.93-14.11-13.23-21.26-2.07-3.44-6.03-8.08-5.03-10.45,1.29-3.08,6.45-5.57,10.33-6.33,15.8-3.08,30.56-1.38,44.06,9.12,5.28,4.1,12.96,6.94,19.62,7.08,17.18.35,29.02,6.8,33.94,23.77,2.49,8.59,6.25,10.35,14.8,5.91,13.74-7.15,51.47,8.23,55.65,23.19,1.5,5.39-2.02,14.07-6.15,18.57-3.69,4.02-11.3,5.6-17.35,6.07Z"/><path class="cls-1" d="m608.19,52.18c10.62,0,19.77-.42,28.87.09,17.7.98,33.06,11.11,35.89,26.76,4.94,27.36,14.71,53.94,9.45,83.06-3.46,19.13-12.09,33.02-29.68,37.18-17.97,4.25-38.01,7.49-55.65,3.86-43.56-8.96-62.84-32.18-62.13-89.01.32-25.66,3.16-51.28,4.76-76.93,1.54-24.56,8.17-32.88,27.01-33.59,21.7-.82,38.41,12.27,41.39,32.83.69,4.74.1,9.66.1,15.76Zm-13.41,43.4c0-14.01-.38-25.94.09-37.84.63-15.78-4.61-24.15-18.15-25.95,1.06,22.52-4.23,45.47,12.07,65.56,6.22,7.67-.09,16.59-10.19,16.02-5.14-.29-10.22-1.52-15.86-2.4,5.03,16.7,21.93,21.52,31.84,8.79,10.92-14.02,24.34-21.14,41.17-24.82,5.91-1.29,10.79-7.33,16.14-11.2-6.7-1.18-13.39-3.17-20.1-3.25-4.04-.05-8.15,2.78-12.17,4.46-7.44,3.11-14.84,6.34-24.85,10.62Zm8.92,67.22c-1.21,14.66,3.46,21.45,17.87,20.68,11.31-.6,22.77-3.1,33.57-6.6,4.66-1.51,7.81-7.67,13.88-14.07h-65.32Zm-2.94-16.77c19.04-5.49,36.73-10.25,54.12-15.92,3.18-1.04,5.17-5.75,7.71-8.76-3.25-1.35-6.68-4.17-9.73-3.81-12.96,1.55-25.74,4.56-38.7,6.07-19.21,2.24-21.16,5.4-13.41,22.41Z"/><path class="cls-1" d="m106.66,392.32c-13.94,20.13-26.93,38.88-41.33,59.66-21.47-11.06-43.66-24.7-55.75-50.14-20.17-42.44-7.92-86.48,31.19-112.33,29.01-19.17,60.63-30.43,95.77-30.01,19.7.24,38.34,17.05,38.64,34.34.29,16.54-15.62,30.87-35.45,34.11-16.59,2.71-33.82,5.31-48.87,12.13-8.51,3.86-17.04,15.44-18.71,24.77-2.29,12.83,10.54,17.83,21.47,21.66,4.78,1.68,9.29,4.11,13.03,5.8Z"/><path class="cls-1" d="m376.7,287.65c3.03-.2,9.91-.69,14.46,3.62,2.86,2.71,4.13,7.14,4.36,13.98,1.1,32.16-28.71,70.54-60.08,77.33-48.76,10.56-89.48-13.56-103.57-61.71-1.6-5.47-2.1-11.52-1.79-17.23.55-10.26,5.61-15.38,16.96-15,21.83.72,43.71.21,65.57.21,29.1-.11,50.8-.35,64.1-1.2Zm-111.53,49.82c9.43,19.34,24.7,20.59,39.37,21.37,12.31.66,26.1,3.14,35.53-12.76-23.99-11.93-47.39-13.48-74.9-8.61Z"/><path class="cls-1" d="m54.51,479.26c.04,27.82,25.78,29.43,38.7,43.04-15.54,7.21-38.24.75-50.89-13.99-10.74-12.51-12.97-34.93-4.78-47.82,7.78-12.23,19.57-12.01,27.52.35,2.04,3.17,4.34,6.56,7.36,8.59,2.46,1.66,6.85,2.79,9.14,1.65,1.84-.92,3.07-5.88,2.44-8.54-6.83-28.81,12.38-44.93,29.92-61.71,1.84-1.76,6.29-1.9,9.2-1.27,23.07,5,40.83,25.58,44.12,50.6,2.83,21.51-10.11,44.01-30.81,54.51-32.95,16.71-49.41,6.91-81.92-25.43Z"/><path class="cls-1" d="m247.52,272.48c-15.45-.4-31.35-16.63-30.76-31.4.61-15.15,15.75-28.83,31.54-28.51,15.44.31,30.82,16.12,30.64,31.48-.17,14.59-15.91,28.83-31.42,28.43Z"/><path class="cls-1" d="m371.5,272.48c-15.45-.4-31.35-16.63-30.76-31.4.61-15.15,15.75-28.83,31.54-28.51,15.44.31,30.82,16.12,30.64,31.48-.17,14.59-15.91,28.83-31.42,28.43Z"/><path class="cls-1" d="m134.67,335.12c4.2,4.97,9.8,8.65,10.77,13.31,2.36,11.3,3.11,23.05,3.19,34.63.02,2.3-6.14,6.92-8.99,6.58-16.02-1.89-31.56-31.76-23.09-45.12,2.72-4.29,10.26-5.52,18.12-9.4Z"/><path class="cls-1" d="m378.92,193.14c-4.32.37-8.67,1.24-12.94.97-3.94-.25-10.72-1.08-11.11-2.82-.92-4.04.02-9.66,2.42-13.06,8.01-11.35,27.41-13.2,37.24-3.42,3.17,3.16,5.39,9.22,4.76,13.46-.34,2.32-7.45,4.01-11.72,5.24-2.67.77-5.74.14-8.64.14,0-.17-.01-.34-.02-.51Z"/></svg>